<?xml version="1.0" encoding="utf-8"?>
<!-- Generator: Adobe Illustrator 16.0.4, SVG Export Plug-In . SVG Version: 6.00 Build 0)  -->
<!DOCTYPE svg PUBLIC "-//W3C//DTD SVG 1.1//EN" "http://www.w3.org/Graphics/SVG/1.1/DTD/svg11.dtd">
<svg version="1.1" id="Layer_1" xmlns="http://www.w3.org/2000/svg" xmlns:xlink="http://www.w3.org/1999/xlink" x="0px" y="0px"
	 width="277.896px" height="273.065px" viewBox="0 0 277.896 273.065" enable-background="new 0 0 277.896 273.065"
	 xml:space="preserve">
<path id="alabama" fill="" stroke="" stroke-miterlimit="10" d="M63.714,12.404c34.511-1.991,69.738-4.468,106.802-7.953
	c5.42,18.491,17.415,60.545,29.16,103.24c0.22,1.232,0.937,2.654,0.937,3.611c0,1.642,0.688,2.198,1.08,3.772
	c0.371,1.477,1.865,2.32,2.164,3.501c0.334,1.337,0.688,2.477,1.08,4.042c0,1.295,0.232,2.004,0.54,3.231
	c0.229,0.916,0.654,2.215,1.62,2.696c1.017,0.506,1.477,4.105,2.704,4.712c0.452,0.228,2.7,1.224,2.7,1.886
	c0,2.092-0.366,3.43,0,5.256c0.254,1.253-0.122,3.649,0.811,4.582c0.679,0.675,2.118,0.713,2.704,1.886
	c0.629,1.262,0.097,1.489-0.27,2.962c-0.351,1.396-1.034,2.599-1.625,3.771c-0.493,0.987-1.932,2.253-2.43,3.502
	c-0.507,1.266-0.933,2.109-1.351,3.771c-0.48,1.915,0.271,3.417,0.271,5.388c0,1.637,0.169,3.637,0.54,5.121
	c0.231,0.929,1.067,2.384,1.35,3.502c0.431,1.704,1.08,3.211,1.08,5.117c0,1.236,0.211,2.818-0.27,3.772
	c-0.692,1.384-1.08,3.446-1.08,5.117c0,2.046,0.27,4.257,0.27,6.197c0,1.456-0.354,3.438,0,4.848
	c0.376,1.498,0.878,2.557,1.62,4.042c0.772,1.544,1.194,2.607,1.625,4.312c0.396,1.582,1.08,3.244,1.08,4.852
	c0,2.549,1.113,2.493,2.159,4.577c0.198,0.397,0.334,0.743,0.422,1.034c-36.729,3.248-79.058,6.071-120.559,8.446
	c0,0,41.501-2.38,0.114,0.042c0.257,0.595,0.325,2.502,0.456,3.143c0.135,0.65,0.249,1.258,0.405,1.887
	c0.139,0.553,0.409,1.404,0.409,1.886c0,0.813,0.342,1.224,0.671,1.886c0.35,0.691,0.692,0.957,1.215,1.48
	c0.464,0.46,0.975,0.836,1.485,1.351c0.856,0.848,1.35,0.94,2.299,1.886c0.494,0.493,1.325,0.898,1.62,1.48
	c0.337,0.68,1.092,1.405,1.215,2.021c0.169,0.853,1.042,1.465,1.215,2.156c0.194,0.772,0.405,1.742,0.405,2.561
	c0,0.853-0.067,1.76-0.27,2.562c-0.186,0.742-0.81,1.738-0.81,2.561c0,0.84-0.135,1.578-0.135,2.426c0,0.675,0,1.346,0,2.021
	c0,1.03,0.051,2.147,0.435,2.7c-1.21,0.347-2.463,1.802-4.417,2.291c-2.114,0.527-4.852,1.469-6.497,2.287
	c-1.574,0.78-4.046,0.721-5.733,1.143c-2.017,0.503-4.054,1.523-6.113,1.523c-2.523,0-3.438-0.684-3.438-3.05
	c0-1.84,0.764-4.177,0.764-5.333c0-1.473,0.823-4.839,0.384-5.713c-0.856-1.708-0.211-3.51-0.763-5.716
	c-0.199-0.789,0.109-5.228-0.384-5.717c-2.228-2.22-1.08-1.282-2.295,1.139c-0.945,1.882-0.987,3.493-1.907,5.337
	c-0.717,1.418-1.663,3.287-1.148,5.333c0.515,2.071-0.62,4.371-1.911,5.337c-1.16,0.869-1.953,2.308-3.442,3.05
	c-1.203,0.6-3.801,1.983-6.024,1.616C67.958,147.535,65.068,50.846,63.714,12.404z"/>
</svg>
