<?xml version="1.0" encoding="utf-8"?>
<!-- Generator: Adobe Illustrator 16.0.4, SVG Export Plug-In . SVG Version: 6.00 Build 0)  -->
<!DOCTYPE svg PUBLIC "-//W3C//DTD SVG 1.1//EN" "http://www.w3.org/Graphics/SVG/1.1/DTD/svg11.dtd">
<svg version="1.1" id="Layer_1" xmlns="http://www.w3.org/2000/svg" xmlns:xlink="http://www.w3.org/1999/xlink" x="0px" y="0px"
	 width="277px" height="272px" viewBox="0 0 277 272" enable-background="new 0 0 277 272" xml:space="preserve">
<g>
	<polygon fill="" points="64.218,96.985 61.109,106.555 69.25,100.64 77.391,106.555 74.282,96.985 82.422,91.07
		72.359,91.07 69.25,81.5 66.141,91.07 56.078,91.07 	"/>
	<polygon fill="" points="133.468,96.985 130.359,106.555 138.5,100.641 146.641,106.555 143.531,96.985 151.673,91.07
		141.609,91.07 138.5,81.5 135.391,91.07 125.328,91.07 	"/>
	<polygon fill="" points="202.719,96.985 199.609,106.555 207.75,100.641 215.891,106.555 212.781,96.985 220.923,91.07
		210.859,91.07 207.75,81.5 204.641,91.07 194.577,91.07 	"/>
	<rect y="116.125" fill="" width="277" height="27.699"/>
	<rect y="157.675" fill="" width="277" height="27.7"/>
</g>
</svg>
