<?xml version="1.0" encoding="utf-8"?>
<!-- Generator: Adobe Illustrator 16.0.4, SVG Export Plug-In . SVG Version: 6.00 Build 0)  -->
<!DOCTYPE svg PUBLIC "-//W3C//DTD SVG 1.1//EN" "http://www.w3.org/Graphics/SVG/1.1/DTD/svg11.dtd">
<svg version="1.1" id="Layer_1" xmlns="http://www.w3.org/2000/svg" xmlns:xlink="http://www.w3.org/1999/xlink" x="0px" y="0px"
	 width="277.896px" height="273.065px" viewBox="0 0 277.896 273.065" enable-background="new 0 0 277.896 273.065"
	 xml:space="preserve">

<path id="georgia" fill="" stroke="" stroke-miterlimit="10" d="M240.433,242.053c-0.068,0.068-1.243,0.174-1.34,0.197
	c-0.704,0.178-1.93,0.607-2.898,0.416c-1.166-0.233-2.173-0.361-3.105-0.823c-1.033-0.521-2.387-0.6-4.143-1.033
	c-1.646-0.412-2.272,0.045-3.727,0.411c-1.29,0.32-2.241-0.114-3.526,0.206c-1.143,0.288-3.265,0.123-3.727,1.033
	c-0.215,0.435-1.271,1.729-1.028,2.68c0.338,1.354-0.416,2.181-0.416,3.512c0,1.047,0.014,2.126,0.205,2.89
	c0.325,1.285,0.76,2.964,1.45,4.34c0.448,0.896,0.736,2.099,1.033,3.302c0.283,1.12,0.74,2.862,0.21,3.923
	c-0.512,1.016-1.129,2.044-1.659,3.096c-0.307,0.613-0.439,2.538-1.034,2.685c-0.905,0.224-2.368,0.471-3.311,0
	c-0.604-0.297-2.223-0.338-2.076-1.239c0.394-2.346,0.668-0.987-0.622-2.268c-0.553-0.554-1.531-1.523-1.238-2.685
	c0.251-1.016,0.27-2.112,0-3.096c-0.092-0.32-0.179-0.641-0.266-0.956c-69.295,4.911-116.637,5.643-134.9,5.84
	c0.014-0.192-0.027-0.526-0.027-0.888c0-1.819,0.48-2.844-0.293-4.38c-0.741-1.482-2.09-3.256-3.224-4.381
	c-1.171-1.171-0.864-2.017-1.756-3.796c-1.13-2.259-2.341-2.199-2.341-4.961c0-1.742-0.741-3.544-1.171-5.259
	c-0.461-1.848-0.923-3-1.76-4.676c-0.805-1.609-1.344-2.757-1.756-4.376c-0.384-1.532,0-3.677,0-5.259
	c0-2.104-0.293-4.495-0.293-6.713c0-1.815,0.425-4.052,1.171-5.551c0.521-1.034,0.292-2.749,0.292-4.089
	c0-2.066-0.704-3.699-1.17-5.546c-0.307-1.212-1.212-2.785-1.463-3.796c-0.402-1.609-0.585-3.777-0.585-5.551
	c0-2.131-0.814-3.764-0.292-5.835c0.453-1.807,0.915-2.717,1.463-4.088c0.54-1.354,2.099-2.726,2.634-3.801
	c0.64-1.271,1.385-2.578,1.76-4.088c0.398-1.591,0.974-1.843,0.293-3.21c-0.636-1.271-2.195-1.308-2.931-2.044
	c-1.011-1.006-0.604-3.607-0.878-4.966c-0.398-1.976,0-3.43,0-5.693c0-0.723-2.438-1.802-2.927-2.044
	c-1.331-0.663-1.824-4.559-2.931-5.112c-1.047-0.521-1.509-1.93-1.756-2.917c-0.334-1.336-0.585-2.104-0.585-3.508
	c-0.425-1.696-0.809-2.927-1.17-4.376c-0.325-1.285-1.943-2.199-2.346-3.8c-0.425-1.706-1.171-2.309-1.171-4.088
	c0-1.322-1.024-2.565-1.097-4.033C35.354,85.503,22.354,39.917,16.606,19.884c0,0,5.748,20.038-0.284,0.009
	c37.556-3.558,76.873-8.076,118.517-14.006c0.027,0.443,0.05,0.882,0.073,1.321c0.042,0.777-2.282,3.439-2.638,3.795
	c-0.906,0.906-2.68,0.924-3.512,1.751c-1.056,1.047-1.038,1.907-2.053,2.922c-0.869,0.864,0.068,3.471,0.292,4.381
	c0.499,1.984-0.741,2.52-1.17,4.669c-0.417,2.09-0.626,1.998,0.585,3.21c1.061,1.061,1.77,1.76,2.931,2.336
	c1.171,0.585,2.295-0.292,3.805-0.292c1.015,0,3.525,2.492,4.102,2.922c1.029,0.769,3.434,0.293,4.687,0.293
	c1.902,0,2.858,0.219,4.683,0.585c1.303,0.256,2.172,1.285,2.932,2.044c1.152,1.148,2.368,1.788,3.219,2.917
	c0.576,0.764,0.082,3.53,0.297,4.381c0.339,1.344,1.354,1.934,2.049,2.629c0.544,0.54,0.929,2.542,1.171,3.502
	c0.549,2.19,0.864,2.895,1.756,4.673c0.384,0.764,3.946,1.935,4.395,2.044c1.285,0.32,3.142,3.05,3.517,3.795
	c0.718,1.431,1.724,1.724,2.926,2.922c1.482,1.477,2.895,2.007,4.103,3.21c1.691,1.692,2.208,2.606,4.682,4.088
	c2.136,1.276,5.483,2.337,7.911,2.337c1.093,0,3.869,1.811,4.39,2.336c1.043,1.038-0.114,3.384-0.292,4.088
	c-0.549,2.204,2.574,3.27,4.687,3.795c0.983,0.243,2.236,1.432,3.517,1.751c2.272,0.567,4.838,0.622,7.028,1.166
	c1.505,0.375-0.128,3.718-0.293,4.381c-0.448,1.792,1.391,3.727,1.756,5.551c0.274,1.358,3.283,3.096,4.103,3.503
	c1.371,0.686,1.18,2.638,2.048,3.502c1.569,1.568,2.758,2.167,4.103,3.503c1.262,1.262,2.821,1.093,4.682,1.458
	c2.383,0.476,2.909-0.045,3.81,1.756c0.631,1.244,1.536,2.374,2.634,2.917c1.161,0.576,0.864,1.98,1.176,3.215
	c0.068,0.279,0,0.581,0,0.874c0.443,1.774,0.447,3.539,0.878,5.258c0.273,1.107,1.339,2.424,2.341,2.917
	c0.759,0.379,1.226,3.132,1.463,4.088c0.325,1.276,0,3.064,0,4.381c0,1.463,2.236,1.555,3.225,2.044
	c1.023,0.512,2.172,0.704,2.926,1.463c0.956,0.951,2.008,1.431,3.224,2.044c1.587,0.791,2.333,1.11,2.635,2.624
	c0.155,0.769,1.916,2.141,2.346,3.215c0.521,1.299,0.727,2.908,1.463,4.376c0.631,1.263,0,2.918,0,4.381
	c0,1.546-0.645,2.68-0.293,4.088c0.489,1.953,1.253,2.794,2.927,3.215c1.148,0.283,2.214,1.354,3.81,1.751
	c1.33,0.334,3.173-0.754,4.687,0c0.59,0.293,1.176,0.554,1.651,0.851c-0.201,1.065-0.211,2.154-0.48,3.238
	c-0.266,1.056,0,3.795-1.171,4.673c-1.463,1.093-2.771,1.706-3.224,3.503c-0.375,1.518-1.171,3.375-1.171,4.966
	c0,1.495-0.201,2.84-0.585,4.376c-0.279,1.111-0.402,2.483-1.171,3.503c-0.864,1.152-1.746,2.881-2.053,4.088
	c-0.361,1.464-0.293,3.063-0.293,4.674c0,1.316,0,2.638-0.292,4.088c-0.233,1.166-0.878,2.995-0.878,4.381
	c0,1.408-0.124,3.754-0.879,5.254c-0.566,1.134-0.864,2.602-1.463,3.8c-0.631,1.258-1.303,1.669-1.761,3.21
	c-0.146,0.503-0.297,1.011-0.443,1.514c-0.965,3.854-1.609,9.813-3.311,13.215C241.411,234.533,240.433,238.152,240.433,242.053z"/>
</svg>
