<?xml version="1.0" encoding="utf-8"?>
<!-- Generator: Adobe Illustrator 16.0.4, SVG Export Plug-In . SVG Version: 6.00 Build 0)  -->
<!DOCTYPE svg PUBLIC "-//W3C//DTD SVG 1.1//EN" "http://www.w3.org/Graphics/SVG/1.1/DTD/svg11.dtd">
<svg version="1.1" id="Layer_1" xmlns="http://www.w3.org/2000/svg" xmlns:xlink="http://www.w3.org/1999/xlink" x="0px" y="0px"
	 width="182.028px" height="41.705px" viewBox="0 0 182.028 41.705" enable-background="new 0 0 182.028 41.705"
	 xml:space="preserve">
<g>
	<path fill="currentColor" d="M66.439,29.663c-1.631,2.3-3.175,4.666-4.905,6.889c-0.413,0.53-1.415,0.604-2.146,0.887
		c-0.096-0.768-0.456-1.619-0.244-2.289c0.927-2.924,2.222-5.743,3.003-8.701c1.008-3.821,1.835-7.714,2.376-11.626
		c0.256-1.85-0.725-3.571-2.692-4.366c-2.064-0.833-3.789-0.085-5.212,1.344c-1.246,1.252-2.301,2.693-3.732,4.398
		c0.305-2.578-0.421-4.176-2.72-4.342c-2.316-0.167-2.742,1.675-3.172,3.432c-0.472,1.931-1.006,3.847-1.535,5.764
		c-1.272,4.611-1.728,9.524-4.866,13.453c-0.876,1.097-1.867,2.103-2.805,3.151c-0.257-0.115-0.514-0.229-0.771-0.344
		c0-0.857-0.133-1.74,0.024-2.568c0.497-2.604,1.063-5.195,1.674-7.774c1.012-4.275,2.142-8.524,3.089-12.813
		c0.377-1.704,0.229-3.513-1.96-3.928c-1.983-0.376-3.377,0.553-3.955,2.548c-0.138,0.476-0.237,0.963-0.363,1.443
		c-1.677,6.41-3.263,12.845-5.105,19.208c-0.414,1.429-1.723,2.599-2.62,3.888c-0.275-0.086-0.551-0.172-0.826-0.257
		c-0.202-0.818-0.649-1.664-0.562-2.45c0.31-2.795,0.702-5.589,1.25-8.346c0.807-4.062,1.808-8.085,2.657-12.139
		c0.348-1.662,0.182-3.208-1.814-3.805c-1.641-0.492-3.435,0.572-4.011,2.418c-0.222,0.71-0.27,1.473-0.491,2.183
		c-0.974,3.135-1.807,6.334-3.085,9.342c-0.384,0.903-2.044,1.264-3.12,1.872c-0.009-1.15-0.218-2.344,0.013-3.444
		c0.593-2.824,1.629-5.577,1.974-8.42c0.146-1.203-0.698-3.274-1.634-3.669c-1.167-0.493-3.078,0-4.327,0.687
		c-1.296,0.713-2.187,2.166-3.345,3.391c-0.344-0.611-0.575-1.236-0.982-1.708c-1.418-1.641-4.323-1.285-4.874,0.733
		c-2.25,8.244-4.346,16.53-4.622,25.143c-0.05,1.553,0.543,2.58,2.245,2.664c1.687,0.084,2.382-0.923,2.608-2.408
		c0.2-1.312,0.354-2.632,0.546-3.945c0.956-6.546,2.611-12.859,6.377-18.422c0.573-0.847,1.442-1.493,2.174-2.231
		c0.213,0.164,0.426,0.327,0.639,0.491c-0.381,1.147-0.841,2.275-1.125,3.445c-0.542,2.229-1.229,4.464-1.396,6.73
		c-0.165,2.25,1.469,3.869,3.706,3.753c1.88-0.098,3.73-0.761,5.119-1.067c0,2.964-0.349,6.384,0.091,9.699
		c0.521,3.929,4.373,5.187,7.474,2.689c0.943-0.76,1.647-1.816,2.562-2.852c1.448,3.537,3.364,4.966,5.64,3.797
		c2.133-1.096,3.875-2.951,5.797-4.479c-0.109,0.646-0.554,1.532-0.288,2.066c0.502,1.009,1.246,2.208,2.193,2.609
		c1.285,0.545,2.65,0.011,3.108-1.62c0.178-0.636,0.282-1.292,0.406-1.942c1.443-7.557,3.588-14.853,8.083-21.238
		c0.563-0.801,1.444-1.379,2.178-2.06c0.211,0.103,0.423,0.205,0.635,0.309c0,0.843,0.199,1.746-0.036,2.517
		c-0.892,2.935-2.055,5.792-2.87,8.745c-0.986,3.573-2.213,7.186-2.434,10.835c-0.236,3.902,3.722,6.024,7.012,3.992
		c4.796-2.963,6.685-7.919,8.522-12.829c-0.284-0.201-0.567-0.402-0.85-0.604C67.558,28.212,66.969,28.916,66.439,29.663z"/>
	<path fill="#fff" d="M110.974,20.334c-0.12-6.68-4.529-10.332-11.16-9.539c-3.929,0.47-6.938,2.461-9.811,5.964c0-5.222-0.033-9.711,0.018-14.2
		C90.038,1.014,89.78-0.006,87.884,0c-1.786,0.006-2.329,0.871-2.328,2.471c0.014,11.906,0.014,23.812-0.001,35.719
		c-0.002,1.567,0.412,2.462,2.266,2.465c1.865,0.003,2.229-0.847,2.203-2.454c-0.065-3.912-0.086-7.828,0.002-11.739
		c0.123-5.476,3.25-9.743,7.998-11.115c5.023-1.452,8.311,0.845,8.408,5.996c0.108,5.659,0.115,11.32,0.12,16.98
		c0.001,1.681,0.659,2.349,2.402,2.327c1.737-0.022,2.077-0.834,2.065-2.332C110.974,32.323,111.082,26.327,110.974,20.334z"/>
	<path fill="#fff" d="M131.53,11.333c-5.016-1.333-9.768-0.511-13.708,3.119c-4.33,3.99-5.156,9.185-4.349,14.653
		c0.834,5.647,4.18,9.545,9.573,11.395c5.375,1.844,10.511,1.057,15.063-2.411c0.495-0.377,0.658-1.921,0.296-2.488
		c-0.369-0.576-1.647-0.953-2.405-0.803c-1.003,0.199-1.848,1.082-2.826,1.523c-7.212,3.249-15.479-1.773-15.107-9.78
		c1.105,0,2.012,0,2.919,0c5.331-0.001,10.661-0.015,15.992,0.008c1.448,0.007,2.705-0.184,2.955-1.937
		C140.7,19.247,136.731,12.714,131.53,11.333z M118.221,22.812c0.736-4.818,4.413-8.208,8.993-8.23
		c4.617-0.023,7.229,2.583,8.07,8.23C129.577,22.812,123.895,22.812,118.221,22.812z"/>
	<path fill="#fff" d="M82.45,36.704c-2.902-0.373-4.876-2.03-4.984-4.989c-0.191-5.285-0.054-10.583-0.054-16.15
		c1.559,0,3.237,0.197,4.832-0.082c0.813-0.143,1.477-1.141,2.208-1.752c-0.729-0.708-1.365-1.855-2.205-2.03
		c-1.574-0.329-3.266-0.095-5.188-0.095c0-2.174-0.039-4.069,0.013-5.962c0.039-1.438-0.467-2.135-2.018-2.141
		c-1.613-0.006-2.269,0.638-2.214,2.234c0.065,1.888,0.016,3.78,0.016,5.647c-1.745,0.443-4.005-0.333-3.917,2.346
		c0.085,2.59,2.271,1.528,3.915,2.068c0,4.973-0.007,9.876,0.001,14.779c0.01,6.102,2.917,9.508,8.854,10.332
		c1.319,0.184,2.79,0.408,3.219-1.399C85.41,37.481,84.184,36.927,82.45,36.704z"/>
	<path fill="#fff" d="M155.815,15.528c0.457-0.152,0.963-0.679,1.113-1.14c0.688-2.104-0.217-3.172-2.471-3.023
		c-3.547,0.233-5.761,2.519-7.993,5.708c0-1.578-0.035-2.546,0.009-3.51c0.066-1.495-0.622-2.054-2.098-2.078
		c-1.535-0.025-2.414,0.496-2.416,2.098c-0.006,8.321-0.002,16.642-0.001,24.963c0.001,1.61,0.848,2.1,2.392,2.095
		c1.648-0.004,2.199-0.683,2.17-2.255c-0.062-3.327-0.027-6.656-0.016-9.985C146.528,21.093,148.912,17.835,155.815,15.528z"/>
	<path fill="#fff" d="M173.53,11.333c-5.016-1.333-9.768-0.511-13.708,3.119c-4.33,3.99-5.156,9.186-4.349,14.653
		c0.834,5.647,4.18,9.545,9.573,11.395c5.375,1.844,10.511,1.057,15.063-2.411c0.495-0.377,0.658-1.921,0.296-2.488
		c-0.369-0.576-1.647-0.953-2.405-0.803c-1.003,0.199-1.848,1.082-2.826,1.523c-7.212,3.249-15.479-1.773-15.107-9.78
		c1.105,0,2.012,0,2.919,0c5.331-0.001,10.661-0.015,15.992,0.008c1.448,0.007,2.705-0.184,2.955-1.937
		C182.7,19.247,178.731,12.714,173.53,11.333z M160.221,22.812c0.736-4.818,4.413-8.208,8.993-8.23
		c4.617-0.023,7.229,2.583,8.07,8.23C171.577,22.812,165.895,22.812,160.221,22.812z"/>
</g>
</svg>
