<?xml version="1.0" encoding="utf-8"?>
<!-- Generator: Adobe Illustrator 16.0.4, SVG Export Plug-In . SVG Version: 6.00 Build 0)  -->
<!DOCTYPE svg PUBLIC "-//W3C//DTD SVG 1.1//EN" "http://www.w3.org/Graphics/SVG/1.1/DTD/svg11.dtd">
<svg version="1.1" id="Layer_1" xmlns="http://www.w3.org/2000/svg" xmlns:xlink="http://www.w3.org/1999/xlink" x="0px" y="0px"
	 width="277.896px" height="273.065px" viewBox="0 0 277.896 273.065" enable-background="new 0 0 277.896 273.065"
	 xml:space="preserve">
<path id="louisiana" fill="" stroke="" stroke-miterlimit="10" d="M244.22,182.46l0.333-1.882
	c0,0-2.667-9.3-3.328-10.849c-0.672-1.55-3.329-3.761-7.104-7.305c-3.78-3.544-3.329-5.976-2.667-10.623
	c0.667-4.652,2.216-6.422,3.108-8.854c0.887-2.437,0.112-10.516,0.151-10.403c-46.89,2.285-84.73,3.819-102.825,4.692
	c-0.358-0.162-0.466-5.849-0.564-6.241c-0.127-0.505,1.932-4.613,2.221-5.755c0.402-1.613,3.981-2.647,4.883-3.54
	c1.932-1.932,1.696-4.152,0.887-5.76c-1.304-2.603-2.015-5.074-0.446-6.643c1.25-1.24,1.716-3.407,2.226-4.427
	c1.137-1.132-2.143-2.289,0.221-2.877c1.672-0.422,2.667-1.113,3.774-2.221c0.578-0.574,0.466-2.741,0.667-3.54
	c0.495-1.976,1.328-3.138,1.328-5.309c0-1.201,0.358-2.966,0.672-4.211c0.48-1.927,0.961-2.231,2.662-2.657
	c1.304-0.324,1.451-1.887,2.446-2.873c1.593-1.588,1.711-4.559,3.103-6.422c0.893-1.177,2.167-1.275,3.108-2.216
	c1.01-1.005,1.888-1.991,2.888-3.319c0.671-0.892,1.142-2.74,1.554-3.765c0.682-1.706,2.422-2.412,3.774-3.76
	c1.505-1.505,2.221-1.113,2.221-3.324c0-1.073-1.284-2.559-1.774-3.539c-0.946-1.883-2.274-2.486-3.554-3.76
	c-1.201-1.201-3.736-2.461-5.55-3.544c-1.721-1.024-3.568-2.485-3.995-4.206c-0.157-0.613,1.103-3.314,1.328-4.206
	c0.245-0.971-0.446-2.338-0.446-3.544c0-0.554,2.422-1.466,2.667-2.432c0.24-0.946-1.107-3.108-1.328-3.985
	c-0.147-0.588-0.52-0.721-0.672-1.329c-1.005-4.015-1.74-4.966,2.221-5.76c2.314-0.456-1.593-5.397-1.774-5.75
	c-0.196-0.397-0.323-0.868-0.529-1.383c-49.841,1.451-100.148,2.005-151.382,1.177c0,0,51.233,0.829,0.113,0.029
	c-0.049,18.065-0.226,40.61-0.319,60.562c0.132,0.324,0.274,0.647,0.407,0.966c0.77,1.809,1.182,3.466,2.696,4.976
	c1.083,1.083,2.049,3.02,3.456,4.074c2.049,1.529,2.427,2.284,3.765,4.069c1.069,1.412,2.118,4.079,1.574,6.26
	c-0.456,1.809,0.23,2.721,0.627,4.701c0.51,2.544,1.873,4.672,2.824,6.574c0.559,1.108,1.76,2.098,3.142,3.133
	c1.127,0.843,3.138,1.858,3.138,3.127c0,1.877,0,3.76,0,5.638c0,2.079,0.456,4.01,0.941,5.946c0.544,2.162,1.5,3.064,3.143,4.691
	c1.961,1.961,3.985,2.25,3.137,5.638c-0.421,1.686-1,7.123,0,8.451c1.485,1.971,2.005,3.162,1.569,5.324
	c-0.363,1.813-1.069,4.755-2.824,5.632c-1.235,0.618-2.118,1.412-2.824,2.819c-1.407,2.794-4.711,3.201-4.711,6.574
	c0,1.142-0.392,3.637-1.255,4.068c-1.49,0.745-2.677,1.907-3.143,3.755c-0.446,1.795-0.059,3.206,0.314,4.696
	c0.318,1.261,1.255,3.814,1.255,5.011c0,2.402,1.152,5.417,2.201,7.51c0.206,0.422,0.417,0.839,0.627,1.255
	c0.652,1.305,1.76,3.814,0.627,5.319c-0.5,0.672-3.137,2.402-3.137,2.818c0,1.691-0.04,3.496-0.946,4.696
	c-1.015,1.354-2.079,2.893-2.824,4.383c-0.765,1.52-1.343,2.854-1.882,5.006c-0.505,2.024-1.721,1.544-2.515,3.132
	c-0.721,1.446-0.784,3.555,0.074,4.771c1.598,0.392,5.309,1.353,6.79,1.353c2.015,0,5.275,0.284,7.104-0.446
	c2.113-0.838,5.329-0.445,6.657-1.77c1.147-1.137,3.02-2.656,4.888-2.656c3.539,0,8.471,0.607,9.324,1.328c0.368,0,0.74,0,1.108,0
	c1.28,0,2.848,0.441,4.221,0.441c1.034,0,2.618,0.818,3.77,1.107c0.892,0.221,2.088,0.927,2.888,1.329
	c1.598,0.794,4.314,0.622,5.775,1.103c1.529,0.51,3.289,0.932,4.882,1.328c1.804,0.451,3.907,0.422,5.775,0.888
	c1.285,0.318,2.794,0.221,4.216,0.221c1.255,0,3.883,0.388,4.888,0.888c1.407,0.7,3.608,1.122,5.324,1.549
	c1.799,0.446,4.04,0.73,5.555,1.103c1.573,0.397,2.451,0.784,3.549,1.329c0.927,0.466,2.804-0.182,3.329-0.441
	c1.579-0.789,2.152-0.083,2.888-1.549c0.632-1.266,0.667-2.451,0.667-3.986c0-1.52,0.132-3.142,0.667-4.206
	c0.779-1.559,0.52-1.857,2.221-2.877c0.926-0.56,1.819-1.196,2.887-1.99c0.873-0.657,3.03-0.446,4.216-0.446
	c2.535,0,4.902,0.505,7.324,1.107c1.127,0.279,2.579,1.029,3.775,1.329c1.221,0.304,2,1.216,3.108,1.77
	c0.971,0.48,2.314,2.563,3.333,3.318c0.642,0.48,1.74,0.54,2.441,0.888c1.564,0.779,3.559,2.039,5.329,3.098
	c0.813,0.486,1.456,2.241,1.774,2.878c0.402,0.799,1.834,1.466,2.888,1.99c1.304,0.657,1.951,1.206,3.329,1.55
	c1.274,0.318,3.024,2.206,4.221,3.103c1.132,0.844,2.187,2.402,3.328,3.54c0.849,0.848,1.716,2.353,2.441,3.318
	c0.647,0.858,0.794,2.162,1.334,2.878c0.916,1.221,0.607,1.711,1.554,2.657c1.196,1.195,5.27,0.445,6.883,0.445
	c1.407,0,2.809,0,4.216,0c1.318,0,2.529,0.775,3.108,1.545c0.554,0.735,2.549,1.059,3.774,1.549
	c1.515,0.603,3.078,0.226,4.662,0.226c1.721,0,3.544-1.094,4.221-2.437c0.607-1.211,1.378-1.328,2.662-1.328
	c0.333,0,2.132,1.617,2.888,1.99c2.156,1.073,4.146,0.221,6.216,0.221c1.515,0,2.456-0.49,3.549-0.221
	c1.941,0.485,2.8,1.932,4.446,1.107c1.608-0.804,2.824-1.367,4.441-1.77c1.432-0.363,2.456-0.784,3.55-1.328
	c1.422-0.711,2.117-2.451,2.667-3.545c0.583-1.162,0.642-2.818,1.107-3.76c1.368-2.73,1.804-3.814,2.888-5.976
	c0.882-1.766,3.059-1.745,4.883-2.657c2.299-1.147,3.466-0.177,4.441,1.77c0.695,1.388,3.039,3.063,4.883,3.985
	c1.622,0.809,3.156,2.706,4.441,3.985c1.485,1.48,3.396,2.613,5.328,3.099c1.657,0.412,4.701,2.029,5.775,3.093
	c1.485,1.486,1.956,2.579,3.107,4.873c0.77,1.53,1.029,4.104,1.329,5.31c0.466,1.848,5.23,1.245,6.662,0.888
	c2.289-0.574,3.393-1.613,4.878-3.099c1.151-1.147,1.921-4.26,2.666-5.755c1.187-2.358,1.104-4.217-0.445-5.756
	c-2.123-2.117-3.78-2.99-6.657-4.427c-2.441-1.221-5.564-4.323-8.433-5.755c-1.843-0.922-2.437-1.878-4-2.657
	c-1.539-0.77-3.604-1.133-4.883-1.774c-1.583-0.784-2.833-2.104-3.554-3.54c-0.745-1.49,0.216-5.284,0.446-6.201
	c0.426-1.701,1.789-2.677,2.666-4.427c1.138-2.27,0.839-3.937,2.216-5.309c1.638-1.633,3.373-1.412,4.446-3.545
	c1.03-2.054,3.045-3.607,3.996-4.867c1.505-2.001,1.971-2.143,1.333-5.314c-0.456-2.26-1.985-3.956-2.667-5.31
	c-0.901-1.804-4.5-1.789-6.216-2.216c-1.937-0.48-3.265,2.256-4.888,2.657c-2.809,0.701-3.833,2.446-5.323,4.427
	c-1.716,2.279-3.29,0.706-4.441-0.441c-1.8-1.789-3.271-4.745-4.001-6.196c-1.015-2.029-4.628-1.284-6.216-0.888
	c-3.608,0.897-8.897,1.78-11.545,3.099c-2.143,1.068-4.23,1.044-6.657,0.441c-2.343-0.583-5.402-2.25-7.108-3.099
	c-1.471-0.735-2.304-4.323-2.667-5.755c-0.706-2.829-0.573-4.691,0.893-6.643c0.774-1.024,2.77-2.044,3.995-2.657
	c2.29-1.137,6.152-0.441,8.883-0.441c4.966,0,8.472,0.711,13.761,1.771c2.279,0.455,3.255,1.877,4.883,3.098
	c1.437,1.069,4.034,1.323,6.221,1.323C238.915,180.578,242.111,182.107,244.22,182.46z"/>
</svg>
