<?xml version="1.0" encoding="utf-8"?>
<!-- Generator: Adobe Illustrator 16.0.4, SVG Export Plug-In . SVG Version: 6.00 Build 0)  -->
<!DOCTYPE svg PUBLIC "-//W3C//DTD SVG 1.1//EN" "http://www.w3.org/Graphics/SVG/1.1/DTD/svg11.dtd">
<svg version="1.1" id="Layer_1" xmlns="http://www.w3.org/2000/svg" xmlns:xlink="http://www.w3.org/1999/xlink" x="0px" y="0px"
	 width="277px" height="272px" viewBox="0 0 277 272" enable-background="new 0 0 277 272" xml:space="preserve">
<g id="layer3" transform="translate(0.1250195,0.4949951)">

		<path id="Mexico" d="
		M4.375,43.902c-0.011,0.057-0.022,0.107-0.038,0.167c-0.098,0.033-0.004,0.023-0.102,0.056L4.19,44.227H4.041l-0.102,0.092v1.104
		c0.08,0.06,0.049,0.046,0.148,0.046l0.046,0.056c0.067,0.133,0.279,0.193,0.409,0.297v0.148L4.44,46.017
		c0,0.226-0.039,0.418-0.148,0.604c-0.103,0.175-0.168,0.361-0.056,0.547c0.126-0.025,0.162-0.06,0.25-0.148
		c0.1,0,0.07,0.013,0.148-0.047c0.161,0.048,0.238,0.047,0.399,0.047l0.102,0.046c0,0.271,0.102,0.626,0.102,0.956
		c0,0.439-0.043,0.94,0.501,1.048c0,0.156,0.065,0.278,0.195,0.344c0,0.35-0.046,0.644-0.046,1.001h0.501l0.046-0.046
		c0-0.099-0.004-0.078,0.055-0.158h0.148v0.956c0.295,0.118,0.596,0.343,0.947,0.343c0.083,0.112,0.046,0.31,0.046,0.455
		c0,0.29-0.131,0.31-0.195,0.501H7.14c-0.016-0.064-0.04-0.084-0.056-0.148c-0.092-0.023-0.079-0.011-0.102-0.103l-0.046-0.056H6.49
		v-0.092c-0.097-0.033-0.004-0.023-0.102-0.056v-0.102c-0.155-0.116-0.518-0.289-0.705-0.148v0.307
		c0.099,0.032,0.318,0.283,0.556,0.343c0.087,0.434,0.455,0.432,0.696,0.705c0.141,0.16,0,0.476,0,0.65
		c0.21,0,0.28,0.048,0.455,0.092c0,0.24-0.603,0.201-0.603,1.002c0.197,0.066,0.384,0.398,0.649,0.398
		c0.074,0.222,0.854,0.535,0.854,0.854c0.331,0.165,0.343,0.508,0.343,0.844c0,0.542,0.751,0.635,0.751,1.253
		c0,0.309,0.124,0.448,0.149,0.695c0.012,0.126,0,0.271,0,0.399c0,0.071-0.045,0.123-0.047,0.148
		c-0.012,0.201-0.037,0.789-0.103,0.853c-0.068,0.069-0.148-0.09-0.148,0.094c0,0.279,0.738,0.122,0.946,0.306
		c0.27,0.238,0.192,0.563,0.353,0.797c0.258,0.376,0.571,0.422,0.844,0.696c0.183,0.184,0.429,0.801,0.102,1.002
		c-0.287,0.177-0.287,0.194-0.25,0.594c0.03,0.326,0.951,0.199,0.25,0.705c-0.299,0.216-0.399,0.146-0.399,0.547
		c0,0.243,0.061,0.396,0.297,0.547c0.374,0.239-0.005,0.798,0.306,0.798c0.381,0,0.194-0.505,0.194-0.751
		c0.066,0.329,0.251,0.162,0.251,0.5c0,0.263-0.134,0.307,0.148,0.307c0.43,0.386,0.424,0.223,0.353,0.844
		c-0.07,0.607,0.431,0.614,0.353,1.299c-0.062,0.534-0.375,1.115-0.501,1.493h-0.204v0.604c0.067,0.022,0.081,0.064,0.102,0.148
		c0.354,0,0.729-0.04,1.048,0.103c0.344,0.152-0.188,0.894,0.353,1.001c0,0.287-0.946,1.33,0.102,1.54
		c0.236-0.294,0.671-0.278,0.798,0.102c0.484,0,0.24,0.947,0.798,0.947c0.021,0.062,0.04,0.081,0.102,0.101v0.204
		c0.142,0.048,0.103-0.047,0.103,0.149c0.134,0.044,0.768,0.456,0.797,0.547c0.166,0.023,0.9,0.423,0.9,0.649
		c0.083,0.028,0.046,0.105,0.046,0.204c0.224,0.074,0.261,0.491,0.797,0.491c0.386,0.068,0.608,0.158,1.002,0.158
		c0.395,0,0.457,0.492,0.751,0.492c0,1.541,2.05,2.048,2.05,3.497c0,0.983,1.447,0.482,1.447,1.345c0,1.107,0.576,0.733,0.946,1.104
		c0.249,0.249-0.021,0.667,0.353,0.9c0.466,0.292,0.993-0.122,0.993,0.9c0,0.536,0.556,0.886,0.556,1.494
		c-0.11,0.522-0.27,0.256-0.352,0.5c-0.305,0-0.251,0.374-0.251,0.594c-0.156,0.039-0.171,0.204-0.353,0.204
		c-0.041,0.123-0.212,0.184-0.25,0.297h-0.092v0.455c0.088,0.029,0.138,0.212,0.25,0.297c0.059-0.08,0.046-0.05,0.046-0.149
		c0.154-0.051,0.246-0.102,0.501-0.102c0,0.386-0.063,0.559-0.148,0.899c-0.114,0-0.279,0.041-0.306,0.148h-0.092l-0.056,0.047
		v0.807c-0.179,0-0.343,0.002-0.51,0.019c-0.079,0.007-0.16,0.014-0.241,0.028c-0.46,0.079-0.306,0.507-0.649,0.547
		c-0.203,0.023-0.814-0.389-1.095-0.445c0.189,0.241,0.681,1.09,0.947,1.197c0.044-0.078,0.083-0.127,0.102-0.204
		c0.188-0.047,0.241-0.297,0.455-0.297c0.871,0,0.093,1.063,0.093,1.503c0.261,0,0.229-0.027,0.455-0.102
		c0.044,0.178,0.146,0.399,0.194,0.594c0.082-0.021,0.084-0.029,0.148-0.093c0.078-0.235,0.115-0.177,0.158-0.306
		c0.296,0,0.309,0.158,0.398,0.399c0.062,0.167,0.381,0.102,0.548,0.102c0,0.236,0.053,0.455-0.25,0.455h-0.399
		c-0.195,0-0.229,0.069-0.399,0.092v0.103h-0.547c0-0.27-0.25-0.475-0.25-0.752c-0.157-0.039-0.31-0.28-0.455-0.297
		c-0.19-0.021-0.401,0-0.594,0c-0.022-0.196-0.157-0.288-0.157-0.446v-0.398c-0.232-0.16-0.125-0.158-0.297-0.158
		c-0.024,0.073-0.208,0.138-0.25,0.307c-0.389,0.097-0.208,0.649-0.751,0.649c-0.383,0-0.515-0.102-0.798-0.148
		c-0.042-0.169-0.37-0.202-0.445-0.353c-0.136,0-0.504-0.179-0.547-0.352c-0.354-0.059-0.465-0.399-1.104-0.399
		c-0.613,0-1.057-0.195-1.596-0.195c-0.062-0.184-0.651-0.235-0.705-0.399c-0.221,0-0.488-0.056-0.742-0.056v0.148
		c0.088,0.03,0.241,0.104,0.241,0.25c0.067,0.022,0.081,0.065,0.102,0.148h0.204c0.817,0.357,1.243,0.665,1.243,1.605
		c0.623,0,1.503-0.132,1.503,0.547c0,2.123,2.347,1.169,2.347,3.544c0,1.121,0.238,1.345,1.4,1.345c0.848,0,0.324,0.638,0.845,0.705
		c0.206,0.026,0.751-0.587,0.751,0.046c0,0.779,0.751,0.363,0.751,1.15c0,0.667,1.402,0.093,1.698,0.093
		c0.534,0.237-0.188,1.299,0.501,1.299c0.102,0.305,0.498,0.168,0.548,0.603c0.012,0.109,0.527,0.726,0.603,0.751
		c0,0.183,0.102,0.186,0.102,0.343c0.226,0,0.321,0.125,0.547,0.102c0.173-0.018,0.16-0.251,0.297-0.297
		c0-0.166,0.148-0.353,0.148-0.547c0.168-0.042,0.553-0.149,0.705-0.149c0.026-0.103,0.095-0.133,0.195-0.157
		c0-0.191,0.088-0.149,0.25-0.149c0.064,0.255,0.103,0.738,0.103,1.002c0.446,0,0.809,0.046,1.196,0.046
		c0-0.196,0.055-0.372,0.055-0.594h0.195c0.033,0.099,0.306,0.251,0.455,0.251c0-0.183,0.163-0.618-0.103-0.706v-0.798
		c0.078-0.025,0.047,0,0.047-0.102c0.062-0.021,0.082-0.031,0.102-0.092h0.205c0,0.454-0.09,1.149,0.092,1.493
		c0.13,0.248,0.262,0.425,0.056,0.65c-0.101,0.11-0.404,0.586-0.455,0.603c0,1.152,0.322,0.445,0.751,0.445
		c0.764,0,0.213,0.728,0.603,1.049c0.808,0.667,1.062,0.713,1.55,1.596c0.088,0.16,0.478,0.409,0.649,0.547
		c0.208,0.168,0.092,1.331,0.845,0.955c1.957-0.977,2.046,1.37,2.625,2.181c0.115,0.162,0.252,0.26,0.427,0.26
		c0,1.211,0.705,1.707,1.15,2.55c0.295,0.562,0.093,1.439,0.093,2.097c0,0.691,0.18,1.675-0.297,2.097
		c-0.213,0.188-0.403,1.076-0.501,1.345c-0.24,0.667,0.204,0.908,0.204,1.447c0,0.751-0.538,0.774-0.204,1.698
		c0.241,0.666-0.174,0.976,0.398,1.548c1.036-1.38-0.035,0.25,1.206,0.25c0-0.474,0.242,0.182,0.242,0.399h-0.093l-0.056,0.055
		c0,0.74,0.751,0.287,0.751,1.243c0.314,0,0.074-0.359,0.046-0.5h0.205c0,0.196,0.102,0.304,0.102,0.5
		c0.238,0.08,0.318,0.604,0.798,0.604c0.038-0.148,0.116-0.152,0.149-0.25c0.172,0,0.308,0.046,0.455,0.046
		c0,0.416,0.247,1.299,0.695,1.299c0.253,1.011,2.894,2.098,2.894,2.198c0.866,0.288,2.773,2.793,3.554,2.793
		c0.035,0.173,0.241,0.562,0.399,0.602c0,1.319,2.301,2.185,2.301,2.348c0.405,0,1.447,0.145,1.447,0.592
		c0.349,0.116,0.844,1.929,0.844,2.198c0.368,0.124,0.501,0.49,0.501,0.948c-0.177,0.058,0.425,1.711,0.204,1.947
		c-0.277,0.297-0.185,1.034,0.093,1.104c0.033,0.137,0.128,0.257,0.157,0.399h0.093c0,2.637,3.019-0.428,3.497-0.547v-0.103
		c0.262,0,0.337-0.251,0.604-0.251c0.04-0.158,0.276-0.2,0.352-0.352c1.463-2.438,2.212-1.408,0.817-4.807
		c-0.173-0.421-1.163-0.475-1.373-1.53c-0.133-0.666-0.12-0.852-0.696-1.252c-0.429-0.298-0.762-0.74-0.798-1.048
		c-0.092-0.807-0.94-0.478-1.447-1.996c-0.723-0.601-1.285-0.438-1.447-1.697c-0.026-0.208-0.352-0.119-0.557-0.148
		c-0.962-0.143-0.777,0.123-0.593,0.25c0.388,0.271,0.554,0.979-0.056,1.049c-0.2,0.022-0.148,0.215-0.148,0.399
		c0,0.682,0.409,0.075,0.649,0.194c0.202,0.101-0.497,0.992-0.695,0.9c-0.706-0.321-0.418-0.894-0.604-1.447
		c-1.833-1.069-2.425-3.822-2.718-3.822c-0.938,0,1.104-1.996,0.492-3.099c-0.53-0.953-0.928-1.608-1.633-2.523
		c-1.188-1.544-0.002-3.671-1.791-4.564c-0.726-0.363-1.066-2.785-1.466-3.424c-0.733-1.172,1.353-2.359,0.325-2.115
		c-0.658,0.156-0.879-3.786-1.633-4.397c-0.27-0.219-0.736-1.495-0.974-1.874c-0.273-0.437-1.524-1.473-1.55-1.55
		c-0.313-0.145-0.649-0.462-0.649,0c0,0.714,0.053,0.518,0.482,0.817c0.682,0.473-0.796,1.565,0.659,1.716
		c0.956,0.099,0.99,1.14,0,1.058c-0.501-0.042-0.765-0.759-1.066-1.141c-0.293-0.371-0.807-0.243-0.807-0.899
		c0-0.229-0.074-0.649,0.074-0.817c0.266-0.301,0.185-0.792,0-1.058c-0.372-0.535-0.482-0.325-0.482-1.141
		c-0.147-0.635-1.018-1.147-1.466-1.79c-0.303-0.436-0.712-3.378-1.15-3.424c-2.805-0.29-2.553-3.042-3.024-4.944
		c-0.093-0.374-0.222-0.719-0.399-1.002c-0.409-0.654-0.566-1.754-0.566-2.597c0-0.785-2.199-0.796-2.199-2.857
		c0-1.603-0.983-2.266-0.983-1.549c0,0.578-0.24-1.262-0.89-1.624c-1.243-0.689,0.248,1.147-0.901,0
		c-0.733-0.733,0.575-0.68,0.575-1.549c0-0.458-1.14,0.402-1.14-1.708c-0.958-0.856-2.676-3.695-3.424-4.156
		c-0.528-0.325-0.983-0.733-1.392-1.141c-0.435-0.435-1.394,0.129-1.466-0.492c-0.074-0.647,0.226-0.907,0.167-1.549
		c-0.035-0.379-0.816,1.479-0.816,0.167c0-0.765-1.738-0.908-0.167-1.874c0.212-0.13-0.733-0.032-0.733-0.566
		c0-3.238-0.158-4.008-0.158-7.58c0-0.774-0.464,0.362-0.659,0.167c-0.727-0.726-0.325-2.739-0.325-3.664
		c0-2.106,1.157-2.178,1.549-3.331c-0.059-0.004-0.118-0.009-0.175-0.019c-0.095,0.025-0.166,0.023-0.177-0.036
		c-0.188-0.048-0.349-0.129-0.436-0.25c-0.048,0.318-0.111,0.573-0.111,0.129c0-0.088,0.038-0.132,0.092-0.148
		c-0.003-0.005-0.005-0.013-0.009-0.019c-0.269-0.486-0.171-0.695,0.019-0.742c-0.18-0.242-0.699,0.123-0.993-0.065
		c-0.293-0.187-0.016-0.873-0.167-1.057c-0.121-0.149-0.492-0.282-0.492-0.575c0-0.236-0.037-0.385-0.074-0.464
		c0.021,0.018,0.042,0.033,0.074,0.056c0.273,0.188,0.502,0.364,0.706,0.538c-0.028-0.3-0.024-0.662-0.028-0.983
		c0.005,0.322,0.006,0.69,0.037,0.993c0.337,0.289,0.606,0.566,0.918,0.919c0.124,0.14,0.713,1.41,1.224,0.899
		c0.1-0.099-0.104-0.408,0.167-0.408c0.949,0,0.014,0.855-0.557,1.141l0.01,0.092c0.264,0.019,0.528,0.012,0.704-0.009
		c0.188-0.021,0.436-0.798,0.816-0.25c0.375,0.538,1.298,1.348,1.708,1.633c0.457,0.318,1.224-0.36,1.224,0.566
		c2.382,2.21,1.14-2.518,2.607-0.975c1.01,1.063,1.874,0.584,1.874,2.44c0,2.112,4.972,0.621,4.972,2.449
		c0,1.625-0.807,2.792-0.807,4.722c0,0.895,1.626,2.072,1.548,3.256c-0.078,1.202,0.925,4.141,1.708,5.705
		c0.911,1.822,1.716,2.367,1.716,4.397c-0.043-0.026-0.334-1.182-0.334,0.649c0,0.264,0.873,0.084,1.225,0.084
		c1.333,0,0.263,1.712,0.649,2.69c0.178,0.452,1.322,2.681,1.8,2.681c0.414,0,1.224-0.406,0.408,0.9
		c-0.337,0.541,1.215,0.38,1.215,1.466c0,1.936,1.903,1.126,2.533,2.523c0.152,0.339,0.72,0.719,0.891,1.058
		c1.051,2.085,2.973,2.648,3.952,2.866c-1.306-1.973,1.299,0.52,1.429,0.389c0.944,0.787,1.876,0.592,1.225,0.817
		c-0.283,0.098-0.951,0.938-0.492,1.225c1.42,0.886-0.513-0.289,0.492,1.707c0.502,0.998,0.075,2.097,0.798,2.719
		c0.356,0.307,1.361,1.091,1.725,1.354c0.858,0.62,1.039,0.486,1.633,0.408c0.721-0.094,0.716,1.814,1.633,2.282
		c1.287,0.658-0.718,1.147,0.751,2.05c0.207,0.127,0.798,0.418,1.039,0.39c0.289-0.034,0.272-1.056,0.817-0.733
		c0.296,0.175,0.45,0.329,0.529,0.455c0.015-0.017,0.029-0.029,0.046-0.046c0.13-0.13,0.418,0.462,0.565,0.575
		c0.373,0.285,1.199,1.932,1.299,2.347l1.039,0.288l-1.039-0.278c0.011,0.046,0.018,0.072,0.01,0.083
		c0,0.608-0.099,0.575,0.482,0.575c0.916,0,0.408,0.527,0.408,0.974c0,0.389,0.375,0.938,0.575,1.299
		c0.082,0.146-0.989,0.023-1.058-0.65c-0.029-0.283,0.093-0.762-0.083-0.974c-0.467-0.56-0.575-0.373-0.575,0.241
		c0,0.337-0.3,0.331-0.482,0.492c-0.549,0.484-0.14,0.975-0.659,1.299c-0.303,0.189-0.595,0.029-0.891,0.324
		c-0.438,0.439-0.356,1.386,0.241,0.9c0.313-0.253,0.094,0.597,0,0.733c-0.104,0.149-0.448,0.258-0.649,0.408
		c0.311,0.233,0.482,0.177,0.733,0.445c0.401,0.428-1.038,0.481-0.204,1.113c0.241,0.183,0.674,0.314,0.724-0.065
		c0.026-0.206,0.375,0.426,0.529,0.464c1.145,0.28,2.313,1.299,3.349,1.762c0.484,0.217,0.326,0.689,0.853,0.724
		c0.243,0.016-0.398-0.969-0.398-1.308c0-1.114,0.838,0.137,0.983,0.455c0.49,1.078-0.517,1.642,1.188,1.642
		c0.534,0,1.495,0.616,1.633,0.918c0.21,0.464,0.066,1.132,0.593,1.308c0.962,0.222-0.172-0.498-0.13-0.779
		c0.172-1.132,0.49-0.439,0.854,0.195c0.135,0.234,0.446,1.417,0.594,1.437c0.458,0.064-0.306,0.613,0.194,1.113
		c0.085,0.085,0.389,0.591,0.39,0.594c0.139,0.449,0.512,0.718,0.854,1.178c0.581,0.782,1.928,1.04,2.106,1.967
		c0.088,0.46,1.02,1.902,1.438,1.902c0.73-0.778-0.47-1.177,0.399-1.967c0.367-0.334,1.101,1.751,1.113,1.836
		c0.299,2.09,1.559,1.123,2.227,2.032c0.631,0.86,0.196,2.394,1.707,2.626c0.943,0.146,1.34,4.334,3.414,5.055
		c1.571,0.547,0.628,1.238,1.512,2.032c0.961,0.865,1.233,1.14,2.032,2.097c0.095,0.572,0.197,0.53,0.333,0.854
		c0.149,0.351,0.738,0.701,1.049,0.723c0.458,0.031,0.262,0.108,0.454,0.39c0.124,0.181-0.01-0.111,0.065,0.39
		c0.029,0.193,0.78,0.947,0.918,1.447c0.142,0.513,0.529,0.393,0.529,1.113c0,0.251,0,0.747,0.065,0.983
		c0.019,0.066,0.918,0.232,0.918-0.131c0-0.913-0.26-1.717-0.26-2.755c0-0.567-0.18-1.054,0.52-0.658
		c0.365,0.207,0.374,0.884,0.296,1.624c-0.092,0.893-0.3,1.882-0.158,2.254c0.12,0.311,0.25,1.868,0.455,2.096
		c0.515,0.572,1.512,0.344,1.512,0.984c-0.428,0.328-0.611,0.452-0.854,0.064c-0.002-0.005-0.173-0.134-0.195-0.194
		c-0.042-0.116,0.109-0.424-0.204-0.27c-0.225,0.11-0.339,0.236-0.52,0.464c-0.02,0.026-0.515-0.146-0.064-0.325
		c0.112-0.043,0.127-0.676,0-0.788c-0.284-0.251-0.26-0.056-0.26-0.594c0-0.384-0.11-0.793-0.269-1.048
		c-0.112-0.181,0.2-0.195-0.194-0.195c-0.127,0-0.065,0.442-0.065,0.584c0,0.432,0.434,1.233,0.39,1.577
		c-0.017,0.128-0.184,0.302-0.194,0.529c-0.015,0.305,0.072,0.237,0.129,0.52c0.027,0.412,0.98,2.621,1.447,2.689
		c0.552,0.083,1.303,1.859,1.642,2.098c0.95,0.668,0.766,1.207,0.455,2.106c-0.353,1.016,0.446,1.832,0.204,2.745
		c-0.181,0.68-1.416,0.715-1.707,1.512c-0.155,0.426-0.793,0.663-0.854,1.447c0.505,0,0.993,0.047,1.503,0.064
		c0.312,0.012,0.465,0.105,0.538,0.262c0.099,0.205,0.056,0.515,0.056,0.852c0,0.481-0.094,0.817-0.464,0.984
		c-0.522,0.234-1.55-0.052-1.772,0.064c-0.41,0.216-0.591-0.186-1.048,0.26c-0.298,0.293-0.024,0.594-0.584,0.594
		c0.249,1.574,0.402,2.188,1.112,3.608c0.152,0.304,0.611,1.898,0.724,1.968c1.689,1.029,2.941,1.544,3.479,3.014
		c0.769,2.104,2.569,2.737,4.359,3.424c1.32,0.508,2.638,1.048,3.517,2.216c0.071,0.646,2.257,0.62,2.821,1.05
		c0.698,0.531-0.041,1.225,1.242,1.577c0.173,0.048,0.33,0.116,0.465,0.204c1.146,0.748,1.083,2.807,2.356,3.535
		c2.104,1.2,4.766,1.867,7.421,2.615c1.329,0.374,3.775,1.946,4.787,2.04c0.234,0.023,0.545-0.234,1.002-0.473
		c0.382-0.198,0.866-0.381,1.494-0.381c1.846,0.487,2.349,3.757,4.721,4.547c1.646,0.547,4.339,3.433,5.169,3.46
		c3.32,0.109,5.563,1.671,7.977,2.438c1.17,0.373,1.708,0.773,2.802,1.457c0.51,0.321,0.672,0.613,1.419,0.613
		c1.518,0,4.353,0.594,4.621,0.473c0.309-0.141,0.248,0.396,0.333,0.408l2.144,0.324c0.51,0.078,1.343,0.719,2.068,1.346
		c0.453,0.394,0.872,0.784,1.142,1.021c0.618,0.542,4.914,1.742,5.789,2.004c1.066,0.318,2.295,2.492,2.801,1.596
		c0.108-0.192,1.848-0.183,3.674-0.074c2.425,0.484,4.167,1.93,6.781,1.93c0.973,0,2.935-0.642,4.444-1.049
		c0.967-0.26,1.263-0.958,1.781-1.094c2.109-0.559,4.508-1.332,5.751-2.626c0.089-0.085,0.397-0.223,0.409-0.314
		c0.058-0.506-0.062-0.746,0.361-0.845c0.5-0.116,0.93-0.329,1.438-0.232c0.357,0.069,0.651,0.232,1.076,0.232
		c0.194,0,0.955-0.028,0.955-0.232c-0.377-0.126-1.919-0.141-1.919-0.539c0-0.176,0.205-0.095-0.112-0.12
		c-0.302-0.023-0.737,0.08-0.483-0.176c0.082-0.08,0.341-0.179,0.483-0.186c0.183-0.007,0.503-0.025,0.594,0.065
		c0.174,0.174,0.401,0.061,0.296-0.242c-0.107-0.311-0.221-0.24,0.066-0.482c0.03-0.024,0.02-0.037,0.055-0.055
		c0.385-0.183,0.274-0.074,0.362,0.055c0.127,0.188,0.376-0.033,0.537,0.121c0.006,0.005,0,0.243,0,0.298
		c0,0.297,0.175,0.504-0.12,0.602c0.564,0.5,0.271,0.428,0.538,0.243c0.306-0.214,0.187-0.757,0.482-0.781
		c0.378-0.03,0.236,0.116,0.473-0.119c0.519-0.52,1.016,0.182,0.659,0.537c-0.075,0.077-0.682,0.703-0.778,0.715
		c-0.046,0.005-1.171-0.089-0.78,0.241c0.188,0.158,1.6,0.15,1.8,0.056c0.904-0.43,1.88,0.225,2.866,0.306
		c0.535,0.422,1.35,0.57,2.125,0.741c0.681,0.151,1.333,0.316,1.763,0.688c1.477,1.273,3.904,1.951,5.27,3.228
		c2.943,2.754,6.678,4.543,8.905,7.774c0.185,0.267,1.174,1.157,2.422,2.17c0.233-0.281,0.52-0.51,0.52-1.076
		c0-0.542,0.166-0.761,0.166-1.327c0-1.213,0.622-1.976,0.622-3.255l-1.4-1.15l4.498-8.831l12.052-0.539
		c-0.227-0.075-0.352-1.376-0.408-1.651c-0.077-0.371,0.195-0.563,0.24-0.909c0.032-0.237,0.336,0.014,0.336-0.287V204.8
		c-0.145,0-0.441,0.122-0.502,0.083c-0.117-0.071-0.193-0.187-0.288-0.286c-0.367-0.383-0.498-0.234-0.909-0.13
		c-0.682,0.203-0.456-0.82-1.065-0.946c-0.123-0.025-0.359-0.61-0.372-0.826c-0.041-0.707-1.076-1.521-1.865-1.521
		c-0.621,0-0.778,0.078-0.778-0.622c-0.223,0-0.359,0.12-0.538,0.12c-0.205,0-0.473-0.4-0.493-0.622
		c-0.022-0.271,0.045-0.089,0.123-0.203c0.307-0.45-0.929-0.051-0.948-0.241c-0.042-0.414-0.37-0.282-0.37-0.668
		c0-0.35-0.174-0.166-0.501-0.288c-0.169-0.062-0.148-0.145-0.204-0.324c0-0.17-0.201-0.165-0.287-0.251
		c-0.062-0.06-0.214-0.037-0.334-0.037c-0.112,0-0.214-0.098-0.288-0.213c-0.116-0.179,0.042-0.211-0.167-0.288
		c-0.058-0.021-0.029-0.006-0.084-0.036c-0.217-0.12-0.235-0.152-0.353-0.381l0.252-0.01l3.255-0.064l-0.019-2.069l-0.047-3.97
		c5.571-0.034,10.353-0.339,15.855-0.725c0.103-0.007,1.316-0.075,1.418-0.082l-0.213-1.709c0.009,0,0.632-0.341,0.78-0.389
		c0.418-0.134,0.939-0.075,1.382-0.075c0.926,0,0.551-0.458,1.131-0.602c0.842-0.211,1.145-2.342,1.104-3.191
		c-0.021-0.447,0.596-0.328,0.816-0.751c0.559-1.067,0.895-0.836,1.763-0.816c0.161-0.456,1.169-0.838,1.169-1.012
		c0-0.606,0.669,0.07,0.222-1.029c-0.251-0.621,0.784-0.392,0.732-0.946c0-0.008-0.47-0.945-0.147-0.945
		c0.599,0,1.459,1.313,0.881,1.892c-0.381,0.381-0.646,0.944-0.37,1.613c0.478,1.162,2.367,0.979,1.846,2.738l0.13,0.063
		c1.048,0.12,0.315-1.012,0.584-1.966c0.248-0.876,0.223-1.89,0.409-2.803c0.083-0.408-0.205-1.317,0.231-1.484
		c0.515-0.194,1.085-3.767,1.085-4.563c0-0.728-0.34-0.393-0.64-0.093c-0.029,0.028-0.065,0.056-0.102,0.084
		c0.054,0.059,0,0.132-0.26,0.232c-0.364,0.137,0.007-0.034,0.26-0.232c-0.177-0.192-1.497-0.228-0.575-0.446
		c0.308-0.073,0.093-0.724,0.548-0.991c0.407-0.241,1.439-0.462,1.715-0.9c0.14-0.224-0.17-0.54-0.092-0.863
		c0.161-0.679-1.283,0.032-1.31,0.047c-0.568,0.322-0.22,0.1-0.406,0.724c-0.106,0.352-0.917-0.095-0.362-0.455
		c0.346-0.226-0.232-0.361-0.502-0.361c-0.277,0,0.149-1.244,0.409-1.448c0.265-0.207,0.861-0.055,0.861-0.445
		c0-0.591,0.632-0.532,0.632-1.399c0-0.613-0.455-0.877-0.455-1.586c0-2.831,1.783-2.773,2.765-5.187
		c0.345-0.846,1.809-1.476,1.847-2.534c0.052-1.487,1.078-3.165,0.343-4.358c-0.186-0.305-0.713-1.008-1.066-1.698
		c-0.281-0.546-1.574-1.438-1.763-1.438c-0.36,1.133-1.75,1.466-3.553,1.503c-3.548,0.071-8.688-1.013-10.65,0.565
		c-2.455,1.975-4.902,2.072-8.062,3.015c-3.77,1.124-3.626,0.493-6.104,2.969c-0.667,0.1-1.144,0.755-1.477,1.633
		c-0.633,1.649-0.769,4.105-0.769,5.214c0,0.821,0.986,1.842,0.909,3.19c-0.041,0.695-1.014,2.34-1.327,3.062
		c-1.011,2.327-0.033,3.723-1.948,5.278c-1.073,0.87-3.436,3.715-4.723,3.822c0.134,0.354,0.039,0.491,0.344,0.491
		c0.263,0,0.53-0.139,0.696-0.139c0.148,0,0.155,0.377,0.213,0.482c0.126,0.222,0.84,0.234,1.354,0.222
		c-0.678,0.041-1.402,0.235-0.945,1.169c0.007,0.016,0.353,0,0.631,0c0.064,0,0.103,0.006,0.12,0.009
		c-0.062,0.035-0.814,0.12-0.892,0.132c-0.27,0.034-0.562,1.111-1.103,0.899c-1.307-0.514-0.712,1.339-1.884,1.187
		c-0.124-0.016-0.533-0.401-0.835-0.213c-0.304,0.19-0.206,0.975-0.483,0.975h-0.834c-0.515,0-0.39,0.062-0.417-0.418
		c-0.014-0.233-0.106-0.188,0.277-0.204c0.003,0,0.459,0.046,0.344-0.14c-0.106-0.17-0.279-0.246-0.279-0.492
		c0-0.698-0.319,0.239-0.557-0.138c-0.456-0.732-0.629,0.303-1.111,0c-0.209-0.131,0.001-0.014-0.344-0.14
		c-0.072-0.026-0.279-0.335-0.354-0.344c-0.373-0.042-0.324,0.134-0.482,0.344c-0.142,0.023-0.727,0.146-0.909,0.074
		c-0.229-0.092-0.313-0.144-0.064-0.214c0.116-0.032,0.354,0,0.483,0c0.138,0,0.42,0.082,0.353-0.139
		c-0.047-0.148-0.125-0.249-0.14-0.418c-0.013-0.155-0.027-0.143,0.065-0.204c0.532,0,1.006-0.026,1.465,0.14
		c0.219,0.078,0.432-0.213,0.761-0.213c0.168,0,0.371-0.187,0.214-0.343c-0.151-0.153-0.983-0.135-1.252-0.354
		c-0.504-0.409-1.371,0.198-1.81,0.417c-0.297,0.148-1.029,0.02-1.391,0.14c-0.443,0.147-0.749,0.066-1.05,0.158l-0.01,0.426v-0.426
		c-0.13,0.04-0.255,0.116-0.397,0.259c-0.557,0.186-0.941,0.395-1.392,0.632c-0.324,0.17-0.545,0.125-0.835,0.417
		c-0.615,0.614-1.5,1.354-2.366,1.391c-0.247,0.012-0.44,0.061-0.418,0.344c0.031,0.368-0.258,1.186-0.769,0.835
		c-0.613-0.419,0.692-0.835,0.352-0.835c-0.243,0-0.667,0.102-0.695,0.075c-0.192-0.194-0.753-0.215-1.113-0.215
		c-0.645,0-1.762,0.002-2.088,0.344c-1.016,1.066-3.101,0.572-3.821,1.744c-0.026,0.044-0.623,0.18-0.695,0.204
		c-0.216,0.074-0.386,0.174-0.538,0.278l0.37,0.696l-0.38-0.696c-0.325,0.222-0.582,0.485-1.059,0.63
		c-0.487,0.151-2.013-0.133-2.013,0.279c-1.335,0.309-1.657-0.858-2.022-1.81c-0.187-0.485-0.79-0.391-1.179-1.048
		c-0.764-1.293-0.416-1.104-2.013-1.104c-0.007,0-0.89-1.205-1.252-1.253c-1.608-0.21-2.809-0.073-4.388-0.073
		c-1.06,0-1.476,0.188-2.013-0.483c-3.185-1.023-0.757-1.252-2.321-2.672c-0.501-0.456-1.597-1.764-2.179-1.864
		c-1.106-0.19-1.229-2.592-2.068-4.694c-0.951-2.38-4.148-5.674-5.724-6.994c-0.723-0.606-2.858-4.094-3.146-5.241
		c-0.807-0.675-0.354-0.725-0.603-1.271c-0.287-0.628-0.578-1.307-0.974-1.874c-0.2-0.286-0.076-1.312-0.521-1.345
		c-0.69-0.049-0.86-1.348-1.048-1.949c-0.203-0.649-0.529-0.671-0.529-1.65c0.926,0.155,0.323,0.184,0.538,0.713
		c0.207,0.507,0.197,0.895,0.799,1.124c0.31,0.119,0.806,0.52,0.806,0.797c0,0.413,0.538,0.136,0.538,0.493
		c0,0.611-0.093,0.996-0.093,1.604c0,0.454,0.051,1.434,0.761,1.252c0.175-0.044-0.284-0.626-0.222-0.761
		c0.077-0.17,0.084-0.274,0.084-0.575c0-0.466,0.282-1.395,0.093-1.966c-0.102-0.796-0.845-0.964-1.476-1.337
		c-0.43-0.253-0.992-1.185-1.253-1.651c-0.582-1.044-1.252-1.771-1.252-3.126c-0.033-0.008-0.353-0.041-0.353-0.093v-0.047
		c0-0.137-0.143-0.145-0.269-0.176c-0.134-0.032-0.399,0.054-0.399-0.083v-0.047c-0.088,0,0.421,0,0.594,0h0.027h0.14
		c0.12,0,0.261,0.135,0.307-0.045c-0.235-0.773,0.327-0.598-0.539-1.077c-0.342-0.19-0.205-1.516-0.241-2.097
		c-0.035-0.571-0.103-0.895,0.121-1.448c0.178-0.441,1.027-3.471,0.565-3.933c0-0.219-0.059-0.713,0-0.928
		c0.034-0.122,0.146-0.589,0.038-0.686c-0.127-0.116-0.332,0.014-0.408-0.075c-0.119-0.138,0.203-0.266,0.203-0.445
		c0-0.885,0.167-1.678,0.167-2.569c0-0.204-0.124-0.78-0.286-0.845c-0.127-0.051-0.102-0.145-0.084-0.324
		c0.025-0.282-0.219-0.158-0.159-0.158c-0.382,0-0.31,0.016-0.323,0c-0.155-0.154,0.4-0.177,0.046-0.205
		c-0.301-0.022-0.539,0.102-0.444-0.323c0.013-0.059,0.008-0.05,0.009-0.048c-0.01,0-0.027-0.007-0.047-0.027
		c-0.015-0.015-0.004-0.202,0-0.205c0.158-0.075,0.35,0.077,0.437,0.084c0.067,0.005,0.166-0.207,0.239-0.241
		c0.223-0.106,0.271,0.009,0.446,0.12c0.331,0.213,0.083-0.722,0.083-0.844c-0.175-0.058-0.157-0.037-0.083-0.204
		c0.083-0.185,0.083-0.158,0.083-0.325c0-0.26-0.565,0.151-0.565-0.241c0-0.131,0.012-0.268,0-0.399
		c-0.01-0.108-0.083,0.011-0.12-0.036c-0.102-0.133,0.184-0.113,0.24-0.121c0.181-0.023,0.153-0.394,0.121-0.528
		c-0.045-0.192,0.003-0.262,0.158-0.316c0.077-0.025,0.204-0.069,0.204-0.167c0-0.396,0.03-0.383-0.204-0.678
		c-0.283-0.356-0.049-0.608-0.12-0.724c-0.168-0.267-0.083-1.071-0.381-1.122c-0.007,0.012-0.019,0.042-0.019,0.036
		c-0.005-0.015-0.006-0.031-0.009-0.045c-0.07-0.001-0.156,0.042-0.27,0.129c-0.158,0.121-0.315-0.011-0.324-0.167
		c-0.021-0.369-0.483,0.168-0.279-0.279c0.076-0.164,0.092-0.807,0.195-0.807c0.589,0,0.547,0.618,0.678,1.123
		c0.009,0,0.018,0.007,0.027,0.009c0.022-0.041,0.06-0.114,0.064-0.121c0.172-0.275-0.217-0.395,0.157-0.77
		c0.901,0.089,0.172,0.873,0.261,1.196c0.098,0.355,0.127,0.405,0.167,0.789c0.008,0.08,0.056,0.078,0.056,0.222
		c0,0.447,0.223,0.276,0.223,0.622c0,0.692,0.196,1.732,0.287,0.445c0.05-0.696-0.397-1.12-0.397-1.911
		c0-0.226,0.212-0.123,0.286-0.389c0.211-0.753-0.144-1.383,0.223-1.968c0.042-0.065,0.224-0.79,0.224-0.899
		c0-0.367-0.16-0.512-0.503-0.278c-0.146,0.102-0.194,1.181-0.229,1.457c-0.036,0.281-0.391,0.099-0.391-0.334
		c0-0.728,0.391-0.487,0.391-1.066c0-0.14-0.321-0.365,0.11-0.446c0.196-0.036,0.398-0.225,0.398-0.455
		c-0.226-0.014-0.298,0.08-0.333-0.111c-0.013-0.07-0.053-0.201-0.065-0.056c-0.004,0.038,0.009,0.327,0,0.334
		c-0.102,0.086-0.175,0.013-0.223-0.112c-0.048-0.128-0.168-0.408-0.112-0.557c0.094-0.24,0.186-0.267,0.4-0.287
		c0.334-0.033,0.304-0.104,0.278-0.446c-0.016-0.197-0.113-0.089-0.278-0.111c-0.084-0.01-0.085-0.056-0.232-0.056
		c-0.132,0-0.161-0.041-0.223,0.056c-0.088,0.139-0.16,0.191-0.39,0.223c-0.311,0.043-0.139-0.067-0.111-0.111
		c0.059-0.096-0.083-0.177,0.056-0.223c0.093-0.043,0.178-0.086,0.278-0.111c0.102-0.026,0.088-0.006,0.111-0.111
		c0.01-0.038,0.038-0.151,0.056-0.176c0.103-0.148,0.197-0.228,0.279-0.39c0.037-0.078,0.058-0.155,0.11-0.223
		c0.242-0.306,0.344-0.278,0-0.278c-0.262,0-0.519,0.009-0.779,0c-0.133-0.004-0.025-0.256,0-0.288
		c0.073-0.091,0.225-0.056,0.334-0.056c0.413,0,0.391,0.104,0.391-0.223c0-0.403,0.047-0.104,0.342-0.278
		c0.004-0.001,0-0.153,0-0.167c0-0.109,0.042-0.166-0.056-0.176c-0.119-0.012-0.279-0.007-0.398,0
		c-0.158,0.01,0.042,0.329-0.111,0.176c-0.072-0.072-0.072-0.118-0.111-0.176c-0.104-0.156-0.146-0.205-0.195-0.269
		c-0.039,0.005-0.101-0.097-0.11-0.13c-0.029,0.003-0.059,0.009-0.084,0.009c-0.207,0-0.038,0.066-0.176,0.112
		c0.051-0.098,0.138-0.174,0.176-0.278c0.02-0.053-0.053-0.145,0-0.167c0.13-0.057,0.32,0.201,0.39,0
		c0.041-0.12-0.056-0.202-0.056-0.344c0-0.261,0.061-0.278,0.278-0.278c0.088,0,0.334-0.029,0.398,0
		c0.116,0.052,0.138,0.234,0.167,0.334c0.076,0.252,0.094,0.233,0.278,0.288c0.11,0.033,0,0.139,0,0.278
		c0.014,0.005,0.296,0.213,0.344,0.055c0.056-0.186-0.2-0.389,0.056-0.389c0.113,0,0.498,0.04,0.557,0c0.03-0.021,0-0.083,0-0.12
		c0-0.113,0.035-0.228,0-0.334c-0.01-0.029-0.153,0.061-0.167-0.111c-0.032-0.388,0.496-0.108,0.622,0.056
		c0.067,0.089-0.236,0.426-0.287,0.455c-0.067,0.037-0.112,0.12-0.112,0.222c0,0.14,0.056,0.109,0.056,0.279
		c-0.021,0.351-0.072,1.181-0.278,1.345c-0.151,0.12-0.11,0.292-0.11,0.51c0,0.365-0.344,0.836-0.567,1.123
		c-0.191,0.247-0.111,1.423-0.111,1.855c0.261-0.261,0.321-0.309,0.111-0.566c-0.058-0.071,0.054-0.191,0.056-0.223
		c0.019-0.169-0.066-0.585,0-0.733c0.086-0.188,0.28-0.457,0.399-0.667c0.154-0.271,0.271-0.334,0.445-0.566
		c0.708-0.861,1.466-3.083,1.466-3.767c0-1.838,1.567-2.552,1.567-4.211c0-0.601-0.001-1.112-0.028-1.577
		c-0.618,0.091-1.335,0.365-1.492,0.622c-0.186,0.3-0.716-0.017-0.883,0.185c-0.606,0.735-1.212,0.355-1.679-0.315
		c-0.565-0.811-2.172-0.585-3.256-0.622c-0.576,0-1.268,0.161-1.679,0.186c-1.153,0.071-1.018-0.276-1.819-1.001
		c-0.225-0.205-1.065,0.042-1.178-0.241c-0.284-0.725-0.122-0.326-0.695-0.631c-0.706-0.375-1.161-0.963-2.114-0.872
		c-0.695-0.077-1.798-0.475-2.636-1.001c-0.021,0.04-0.078,0.023-0.222,0.027c-0.486,0.014-0.62-0.599-1.067-0.76
		c-0.214-0.078-0.178-0.397-0.214-0.604c-0.093-0.538-0.659,0.13-0.659-0.463c0.084,0,0.344-0.208,0.344-0.334
		c0-0.4-0.213-0.292-0.213-0.677c0-0.145-0.227-0.344-0.391-0.344c-0.271,0-0.004,0.305-0.361,0.232
		c-0.366-0.074,0.028-0.375,0.037-0.565c0.017-0.334-0.162-0.097-0.25-0.427c-0.056-0.206,0.046-0.345-0.084-0.547
		c-0.155-0.238-0.231-0.477-0.251-0.798c-0.333-1.303-0.736-3.117-0.844-4.657c-0.337-1.012-1.257-1.432-2.068-1.985
		c-0.439-0.274-0.805-0.683-0.854-0.733c-0.347-0.426-0.576-0.977-0.576-1.782c0-0.351-3.074-3.801-3.432-4.991
		c-0.583-1.941-2.194-3.129-3.126-4.806c-0.397-0.714-0.178-1.976-0.816-2.43c-0.247-0.177-1.648-1.379-1.68-1.754
		c-0.18-0.24-0.808-0.303-1.205-0.547v-0.037c-0.023-0.206-0.726-0.035-0.872-0.056c-0.279-0.039-0.155-0.14-0.279-0.195
		c-0.187-0.083-1.407,0.168-1.457,0.083c-0.06-0.102,0.1-0.686,0.112-0.853c0.011-0.156,0.409-0.358,0.287-0.492
		c-0.142-0.156-0.25,0.021-0.25-0.316c0-0.191-0.114-0.623,0.093-0.621c0.205,0.002,0.602,0.996,0.641,1.188
		c0.279,0.167,0.545,0.053,0.816,0.241c0.028,0.02,0.055-0.002,0.075-0.037c-0.318-0.339-0.523-0.778-0.835-1.16
		c-0.807-0.994-1.842-1.603-3.311-1.253c-1.175,0.279-1.222-0.436-1.939-0.436c-0.932,0-1.841,0.054-2.932,0
		c-0.434-0.073-0.346-0.353-0.872-0.316c-0.248,0.018-0.273,0.163-0.38,0.195c-0.218,0.065-0.438,0.252-0.557,0.491
		c-0.082,0.163-1.655,0.636-1.875,0.687c-0.436,0.101-0.363,0.884-0.5,1.188c-0.169,0.374-0.62,0.164-0.873,0.437
		c-0.101,0.11-0.283,0.657-0.314,0.686c-0.492,0.459-0.146,2.22,0,2.876c0,0.097,0.039,0.114-0.065,0.12
		c-0.125,0.007-0.246-0.004-0.371,0c-0.294,0.009-0.307,0.024-0.565,0.13c-0.185,0.075-0.331,0.189-0.492,0.305
		c-0.417,0-0.439,0.942-0.631,1.253c-0.264,0.429-1.59,0.288-2.059,0.065c-0.041-0.02-0.077-0.05-0.111-0.075
		c-0.451-0.289-0.77-0.913-1.197-1.113c-0.367-0.172-0.441-0.206-0.882-0.25c-1.15-0.117-1.356-0.929-2.179-1.688
		c-2.286,0-2.082-1.262-3.998-1.929c-0.751-0.262-2.378-2.706-2.561-3.684c-0.241-1.286,0.147-2.399-0.622-3.497
		c-0.133-0.266-0.151-0.557-0.446-0.557h-0.055c-0.358,0-0.375-0.531-0.5-0.687c-0.081-0.099-0.084-0.09-0.13-0.195
		c-0.301-0.681,0.018-1.306-0.557-1.679c-0.31-0.201,0.028-0.361-0.621-0.566c-0.437-1.305-1.174-2.292-2.691-2.746
		c-2.167-0.646-2.103-2.32-3.933-3.052c-0.697-0.278-1.909-2.447-2.496-2.94c-0.741-0.624-1.221-1.398-1.819-1.995
		c-0.754-0.753-1.153-0.701-2.003-1.438L78.59,57.122l-0.528,4.62l-5.205-0.288l-18.591-1.029L23.857,46.147
		c-0.093,0.009-0.197,0.004-0.307,0c0.109,0.002,0.214,0,0.307-0.009c0.001-0.156-0.015-0.347,0-0.511
		c0.018-0.197,0.013-0.269,0.26-0.269h0.139c0.176,0,0-0.353,0-0.529v-0.918L4.375,43.902L4.375,43.902z M169.03,121.744
		c0.016-0.002,0.028-0.019,0.028-0.065c0-0.065-0.063-0.069-0.13-0.065C168.942,121.626,168.993,121.695,169.03,121.744
		L169.03,121.744z M65.362,106.716C64.866,107.253,65.644,107.167,65.362,106.716z M53.784,93.654
		c0.065,0.097,0.129,0.195,0.213,0.315C54.67,93.798,54.424,93.796,53.784,93.654z M22.549,53.717
		c0.04,0.054,0.064,0.135,0.064,0.26c0,0.103-0.027,0.3-0.055,0.492c0.112-0.018,0.296,0.071,0.463,0.157
		c0.018-0.044,0.043-0.102,0.084-0.167c0.059-0.094,0.076-0.176,0.074-0.26c-0.04-0.11-0.086-0.219-0.148-0.325
		C22.894,53.744,22.693,53.681,22.549,53.717z M23.021,54.626c-0.02,0.052-0.033,0.093-0.028,0.122
		c0.058,0.014,0.116,0.027,0.177,0.036c0.032-0.008,0.062-0.021,0.101-0.036C23.201,54.713,23.12,54.676,23.021,54.626
		L23.021,54.626z M23.272,54.747c0.023,0.011,0.057,0.029,0.074,0.036l-0.037-0.046C23.295,54.744,23.286,54.741,23.272,54.747z
		 M22.558,54.469c-0.007,0-0.013,0.007-0.019,0.009c0.005,0.007,0.014,0.012,0.019,0.019C22.56,54.487,22.557,54.478,22.558,54.469z
		 M39.888,111.262h-0.158v-0.047h-0.046c-0.108,0-0.012-0.107-0.102-0.157c-0.062-0.035-0.212,0-0.149,0.102
		c0.026,0.04,0.071,0.117,0.149,0.158c0.074,0.039,0.102-0.05,0.102,0.046v0.102c0,0.033,0.012,0.046,0.046,0.046h0.056v0.056
		c0,0.065,0.109,0.088,0.25,0.102c-0.027-0.082-0.075-0.122-0.102-0.204l-0.046-0.148V111.262z M20.777,51.5
		c0.009,0.01,0.024,0.021,0.037,0.046C20.793,51.527,20.784,51.51,20.777,51.5z M31.501,76.13c-0.138,0.006-0.189,0.104-0.223,0.362
		c-0.026,0.199-0.167,0.917,0,1.094c0.386,0.412,0.522,0.828,0.816,1.216c0.14,0.184,0.284,0.348,0.464,0.529
		c0.123,0.163,0.186,0.453,0.287,0.575c0.273,0.326,0.392,0.146,0.52,0.52c0.028,0.084,0.077,0.339,0.12,0.408
		c0.031,0.048,0.149,0.261,0.177,0.353c0.06,0.197-0.046,0.571,0.232,0.63c0.271,0.058,0.585,0.103,0.863,0.121l-0.056-0.409
		c-0.331,0-0.574-0.889-0.408-1.271c0.145-0.333,0.017-0.175,0-0.529c-0.024-0.494,0.099-0.84-0.056-1.16
		c-0.092-0.191-0.014-0.056-0.111-0.056c-0.062,0-0.2,0.2-0.232,0.232c-0.145,0.145-0.485-0.038-0.696-0.055
		c0-0.246,0.023-0.508,0-0.752c-0.034-0.367-0.28-0.352-0.353-0.584c-0.08-0.258-0.386-0.586-0.519-0.983l-0.056-0.176
		c-0.005-0.017-0.385,0.005-0.408,0C31.697,76.155,31.583,76.127,31.501,76.13z M41.297,80.536
		c-0.398,0.012-0.819,0.152-0.909,0.297c-0.151,0.241,0.148,0.9,0.055,1.048c-0.123,0.197-0.273,0.112-0.175,0.464
		c0.11,0.396,0.013,0.258,0.231,0.631c0,0.38-0.408,0.256-0.631,0.409c-0.386,0.263-0.224,0.092-0.177,0.408
		c0.043,0.286,0.043,0.145,0.288,0.175c0.231,0.03-0.005,0.464,0.288,0.464c0.076,0,0.154-0.01,0.231,0
		c0.583,0.077,0.361,0.213,0.64,0.464c0.085,0.077,0.345,0.33,0.353,0.399c0.025,0.219-0.002,0.466,0.288,0.528
		c0.312,0.067,0.218-0.159,0.232-0.408c0-0.385,0.055-0.574,0.055-0.751c0-0.314,0.141-0.06,0.232-0.297
		c0.099-0.257-0.338-0.414,0-0.751c0.174-0.175,0.145-0.364,0.121-0.576c-0.028-0.241,0.12-0.575,0-0.696
		c-0.055-0.055-0.263-0.296-0.288-0.408c-0.063-0.297-0.065-0.6-0.065-0.928C42.067,80.642,41.695,80.525,41.297,80.536z
		 M35.499,83.032c-0.037,0.006-0.07,0.039-0.102,0.065c-0.081,0.064-0.067,0.189-0.055,0.288c0.016,0.143,0.111,0.046,0.111,0.12
		v0.056h0.065l0.055,0.056v0.055c0,0.039,0.023,0.045,0.056,0.065c0.033,0.02,0.094-0.027,0.121,0c0.027,0.027-0.02,0.079,0,0.111
		c0.021,0.032,0.019,0.045,0.056,0.056c0.088,0.025,0.179-0.021,0.269-0.046c-0.035-0.018-0.019-0.27-0.037-0.297
		c-0.022-0.031-0.083,0-0.121,0h-0.167c-0.006,0,0.005-0.255,0-0.288c-0.004-0.034-0.083-0.138-0.121-0.176
		C35.579,83.044,35.537,83.026,35.499,83.032z M35.981,84.693c-0.024,0.004-0.05,0.013-0.065,0.028
		c-0.07,0.071,0.109,0.419,0.121,0.52c0.025,0.228,0.191,0.363,0.343,0.408c0.02,0.006,0.296,0.212,0.297,0.232
		c0.015,0.211-0.001,0.271,0.111,0.463c0.303,0.521,0.29,0.52,0.873,0.52l0.176-0.408c0.095-0.126,0.036-0.193,0.056-0.343
		c0.002-0.026,0.04-0.047,0.055-0.056c-0.194-0.058-0.265-0.012-0.287-0.232c-0.031-0.292-0.14-0.149-0.288-0.296
		c-0.046-0.046-0.001-0.129-0.056-0.167c-0.079-0.055-0.195-0.025-0.297-0.064c-0.25-0.098,0.093-0.377-0.288-0.399
		C36.535,84.885,36.153,84.668,35.981,84.693L35.981,84.693z M39.46,84.767c-0.02,0.003-0.036,0.01-0.055,0.01
		c-0.066,0-0.165-0.009-0.232,0c-0.021,0.002-0.289,0.164-0.296,0.176c-0.086,0.137,0.017,0.374-0.056,0.52
		c-0.084,0.169-0.288,0.044-0.288,0.232c0,0.03,0.045,0.163,0.056,0.176c0.056,0.068,0.01,0.029,0.056,0.112
		c0.062,0.11,0.1,0.066,0.12,0c0.031-0.104,0.068-0.056,0.232-0.056h0.695l0.056-0.288c0-0.126-0.018-0.307,0.056-0.353
		c0.075-0.047,0.176,0.084,0.176-0.056c0-0.019-0.019-0.271-0.056-0.288c-0.269-0.129-0.074,0.033-0.232-0.056
		c-0.067-0.038-0.149-0.104-0.176-0.12C39.5,84.766,39.48,84.764,39.46,84.767L39.46,84.767z M16.166,86.279
		c-0.165-0.014-0.298,0.221-0.455,0.362c-0.086,0.077-0.038,0.638-0.038,0.751c0,0.362-0.083,0.975-0.25,1.271
		c-0.144,0.255-0.73,0.354-0.937,0.436c-0.277,0.109,0.175,0.214,0.325,0.214c0.12,0,0.337-0.017,0.437,0.037
		c0.148,0.081-0.058,0.133,0.065,0.149c0.104,0.013,0.165-0.02,0.259,0.065c0.058,0.051,0.168,0.305,0.176,0.333
		c0.012,0.037,0.148,0.062,0.148,0.103v0.037c0,0.242,0.316,0.111,0.612,0.111c0.109-0.673,0.167-0.969,0.362-1.373
		c0.113-0.232,0.243-1.243,0-1.41c-0.369-0.253-0.197-0.417-0.362-0.724C16.374,86.389,16.265,86.287,16.166,86.279z M12.502,86.807
		c-0.129,0.008-0.223,0.062-0.223,0.223c0,0.176,0.022,0.07,0.139,0.148l0.223,0.149l0.176,0.037
		c0.132,0.026,0.238-0.087,0.25,0.064c0.004,0.043,0.017,0.1,0.038,0.111c0.12,0.075,0.244-0.225,0.26-0.25l-0.186,0.075
		c-0.029-0.098-0.024-0.325-0.074-0.399c-0.096-0.144-0.188,0.033-0.325-0.037c-0.066-0.034-0.065-0.103-0.139-0.111
		C12.593,86.811,12.545,86.805,12.502,86.807L12.502,86.807z M50.036,112.171c-0.121,0.009-0.11,0.093-0.139,0.445
		c-0.023,0.278-0.323,0.447-0.343,0.696c-0.021,0.253-0.047,0.417-0.074,0.612c-0.005,0.041-0.104,0.164-0.12,0.195
		c-0.087,0.164-0.149,1.108,0.231,0.612c-0.113-0.49,0.199-0.29,0.612-0.38c0.232-0.05,0.057-0.606,0.158-0.807
		c0.056-0.113,0.129-0.075,0.186-0.157c0.188-0.276,0.302-0.676,0.083-0.993c-0.096-0.139,0.044-0.182-0.195-0.195
		C50.228,112.187,50.108,112.165,50.036,112.171L50.036,112.171z M50.425,115.306c-0.054,0.006-0.102,0.022-0.148,0.074
		c-0.067,0.074-0.106,0.262-0.112,0.353c-0.004,0.086-0.023,0.374,0.075,0.38c0.156,0.009,0.175,0.009,0.307,0.037
		c0.185,0.039-0.042,0.26,0.269,0.306c0.182,0.028,0.257,0.034,0.269-0.148c0.009-0.149,0.094-0.284,0.074-0.501
		c-0.012-0.136-0.096-0.033-0.148-0.121c-0.054-0.09-0.059-0.034-0.037-0.186c-0.162-0.088-0.182-0.195-0.343-0.195
		C50.547,115.306,50.48,115.3,50.425,115.306z M52.736,115.613c-0.052,0.157-0.142,0.35-0.27,0.389
		c-0.075,0.023-0.263,0.135-0.269,0.186c-0.01,0.091-0.007,0.125,0.037,0.194c0.068,0.11-0.112,0.062,0.037,0.112
		c0.169,0.056,0.343-0.117,0.343,0.121c0,0.179-0.018,0.189,0.121,0.306c0.054,0.046,0.037,0.125,0.074,0.148
		c0.115,0.072,0.306-0.066,0.306-0.148c0-0.13-0.118-0.335-0.038-0.464c0.02-0.03,0.076-0.258,0.038-0.343
		c-0.049-0.108-0.135-0.178-0.186-0.269C52.847,115.694,52.817,115.771,52.736,115.613z M53.459,119.379
		c-0.13,0-0.732,0.167-0.761,0.27c-0.025,0.086,0.025,0.128,0.037,0.148c0.078,0.132,0.227,0.023,0.269,0.121
		c0.035,0.08-0.146,0.291-0.037,0.417c0.041,0.047,0.299,0.302,0.306,0.306c0.081,0.043,0.309-0.062,0.344-0.074
		c0.034-0.137,0.125-0.174,0.074-0.269c-0.013-0.022,0.021-0.017,0.037-0.037c0.047-0.058,0.157-0.213,0.121-0.306
		c-0.071-0.181-0.201-0.081-0.307-0.158C53.497,119.762,53.585,119.379,53.459,119.379z M40.518,120.724
		c-0.414,0.077-0.671,0.775-0.807,1.077c-0.232,0.518-0.215,1.324-0.583,1.716c-0.164,0.173-0.472,0.358-0.14,0.537
		c0.211,0.042,0.217,0.119,0.325,0.14c0.077,0.014,0.115-0.008,0.186-0.028c0.229-0.063,0.146,0.004,0.158,0.185
		c0.014,0.208,0.188,0.285,0.25,0.511c0.053,0.191,0.088,0.331,0.13,0.51c0.024,0.105,0.127,0.12,0.139,0.213
		c0.017,0.135-0.272,0.219-0.194,0.297c0.047,0.047,0.233,0.09,0.297,0.111c0.061,0.181,0.715,0.682,0.835,0.78
		c0.298,0.241,0.51,0.228,0.835,0.343c0.193,0.068,0.645,0.274,0.779,0.381c0.217,0.173,0.205,0.598,0.51,0.695
		c0.216,0.069,0.365,0.102,0.269,0.353c-0.065,0.17,0.504,0.324,0.668,0.324c0-1.48-1.674-1.556-1.856-2.208
		c-0.161-0.58-1.502,0.031-1.502-1.15c0-0.331,0.29-0.359,0.056-0.38C39.395,124.993,40.518,121.664,40.518,120.724L40.518,120.724z
		 M53.237,121.392c-0.27,0-0.399,0.481-0.046,1.021c0.129,0.197,0.254,0.211,0.427,0.306c0.006,0.003,0.186,0.549,0.194,0.575
		c0.084,0.253,0.583,0.404,0.149,0.65c-0.113,0.063-0.232,0.379-0.232,0.538c0,0.098,0.041,0.618,0.083,0.612
		c0.306-0.037,0.349-0.403,0.381-0.649c0.014-0.109,0.353-0.265,0.464-0.306c0.382-0.142,0.259-0.551,0.259-0.965
		c0-0.187-0.166-0.22-0.186-0.492c-0.023-0.33,0.124-0.482-0.306-0.538c-0.47-0.061-0.55-0.205-0.882-0.575
		C53.432,121.445,53.326,121.392,53.237,121.392z M43.431,126.429c-0.076,0.018-0.06,0.238-0.065,0.288
		c-0.001,0.013-0.008,0.019-0.019,0.028c-0.037,0.03-0.004,0.033-0.046,0.037c-0.086,0.007,0.035,0.065-0.055,0.065h-0.019
		c-0.091,0,0.012,0.278,0.12,0.278c0.089,0,0.108,0.05,0.158-0.019c0.052-0.071,0.042-0.119,0.102-0.204
		c0-0.147,0.055-0.35-0.074-0.445c-0.021-0.016-0.04-0.007-0.064-0.018C43.453,126.432,43.442,126.426,43.431,126.429z
		 M55.955,126.707c-0.318,0-0.195,0.227-0.195,0.511c0,0.094,0.008,0.091,0.046,0.148c0.063,0.094,0.057,0.342,0.046,0.51
		c-0.014,0.208-0.078,0.162-0.093,0.399c-0.003,0.057,0.027,0.146,0.046,0.158c0.126,0.07,0.189,0.003,0.204,0.102
		c0.045,0.299,0.284,0.354,0.501,0.455c0.039-0.167,0.056-0.176,0.056-0.306c0-0.124,0.135-0.14,0.25-0.204
		c0.102-0.058,0.046-0.256,0.046-0.399c0-0.175,0.064-0.186,0.102-0.362c0.016-0.072-0.075-0.137-0.046-0.25
		c0.003-0.01,0.007-0.019,0.019-0.028c-0.132-0.032-0.142-0.194-0.223-0.222c-0.19-0.069-0.176,0.07-0.204-0.148
		C56.494,126.935,56.144,126.707,55.955,126.707L55.955,126.707z M56.938,127.44c0.044,0.011,0.107,0.01,0.186-0.019
		C57.277,127.368,57.018,127.381,56.938,127.44z M44.572,128.248c-0.212,0-0.118,0.108-0.065,0.204
		c0.072,0.131-0.033,0.048,0.102,0.102c0.033,0.014,0.269,0.127,0.269,0.13c0.012,0.141,0.298,0.134,0.445,0.14
		c0.271,0.008,0.226,0.033,0.186-0.205c-0.01-0.121-0.026-0.263-0.167-0.306c-0.118-0.037-0.188-0.065-0.306-0.065H44.572z
		 M59.647,128.934c-0.144,0.013-0.102,0.138-0.102,0.25c0,0.225-0.146,1.301,0,1.419c0.345,0.281,0.973,0.429,0.659,1.058
		c-0.128,0.257,0.937,0.408,1.058,0.408c0.016-0.38,0.046-0.265,0.046-0.603c0-0.148,0.028-0.287-0.103-0.306
		c-0.375-0.056-0.326-0.391-0.455-0.807c-0.112-0.365-0.276-0.387-0.352-0.558C60.22,129.399,60.225,128.88,59.647,128.934z
		 M81.476,130.622c-0.028-0.003-0.057,0.001-0.083,0.01c-0.065,0.084-0.108,0.237-0.009,0.315c0.087,0.071,0.149,0.215,0.287,0.158
		c0.064-0.013,0.129-0.008,0.195,0c-0.004-0.018-0.012-0.036-0.009-0.056c0.015-0.111-0.056-0.219-0.148-0.278
		C81.653,130.709,81.562,130.636,81.476,130.622L81.476,130.622z M81.865,131.105c0.019,0.102,0.107,0.184,0.129,0.288
		c0.107,0.091,0.232,0.187,0.381,0.177c-0.05-0.059-0.078-0.135-0.158-0.159c-0.106-0.069-0.025-0.302-0.194-0.287
		C81.97,131.118,81.918,131.112,81.865,131.105z M266.726,150.874c-0.266,0.014-0.604,0.199-0.845,0.259
		c-0.659,0.166-1.226,0.345-1.882,0.382c-0.079,0.009-0.168,0.009-0.252,0.009c-0.214,0-0.741-0.074-0.918,0.037
		c-0.394,0.245,0.036,0.24,0.427,0.24c0.25,0,0.493-0.001,0.734-0.009c0.6-0.017,1.179-0.063,1.752-0.167
		c0.536-0.098,0.72-0.409,1.345-0.529C267.019,150.918,266.885,150.866,266.726,150.874z M269.787,151.216
		c-0.018,0.007-0.027,0.046-0.027,0.141v0.223c0,0.151-0.054,0.178,0.036,0.269c0.016,0.016,0.011,0.015,0.027,0.028
		c0.084,0.068,0.066,0.006,0.066,0.166c0,0.215,0.035,0.102,0.23,0.093c0.045-0.002,0.088,0.009,0.131,0
		c0.057-0.011,0.065-0.224,0.065-0.287l-0.196-0.103c-0.067,0-0.089-0.033-0.13-0.065c-0.068-0.055-0.063-0.098-0.063-0.194
		c0-0.076,0.031-0.21-0.037-0.23C269.83,151.236,269.806,151.212,269.787,151.216L269.787,151.216z M270.288,152.887
		c-0.063,0.021-0.127,0.123-0.103,0.231c0.008,0.036,0.088,0.126,0.103,0.14c0.075,0.073,0.08,0.189,0.093,0.288
		c0.002,0.013,0.081,0.164,0.102,0.166c0.109,0.013,0.214,0.024,0.325,0.038c0.094,0.011,0.146,0.021,0.167-0.066l-0.167-0.074
		c-0.247-0.082-0.074,0.026-0.129-0.156c-0.015-0.044-0.045-0.062-0.066-0.103c-0.042-0.077-0.075-0.095-0.102-0.195
		c-0.011-0.041,0.027-0.096,0-0.13c-0.076-0.092-0.096,0.051-0.13-0.064C270.362,152.898,270.326,152.875,270.288,152.887z
		 M171.852,157.776c-0.074,0.009-0.054,0.099-0.047,0.177c0.002,0.036,0.011,0.093,0.047,0.093h0.046v0.046h0.047
		c0.104,0.016,0.214-0.003,0.315,0.047c-0.024-0.144,0.047-0.174,0-0.223c-0.021-0.021-0.067,0.016-0.094,0
		c-0.114-0.064,0.026-0.093-0.139-0.093c-0.03,0-0.059,0.016-0.083,0C171.902,157.796,171.985,157.759,171.852,157.776z
		 M175.246,158.398c-0.072-0.002-0.142-0.002-0.177,0.01c-0.028,0.009,0,0.062,0,0.093c0,0.117,0.012,0.244,0,0.361
		c-0.005,0.067-0.062,0.077-0.046,0.139c0.009,0.036,0.025,0.063,0.046,0.093c0.021,0.03,0.078,0.014,0.094,0.048
		c0.026,0.06,0.001,0.125,0.046,0.176c0.021,0.021,0.032,0.02,0.047,0.045c0.017,0.033,0.01,0.091,0.046,0.093
		c0.036-0.048,0.134-0.09,0.13-0.186c0.147-0.258,0.139-0.224,0.139-0.361c0-0.103,0.009-0.215,0-0.314
		c-0.007-0.105-0.018,0.015-0.046-0.093c-0.02-0.075-0.005-0.084-0.093-0.093C175.389,158.401,175.318,158.399,175.246,158.398z
		 M271.337,160.363c-0.021,0.322-0.347,0.274-0.622,0.297c-0.366,0.028-0.472,0.297-0.825,0.297c-0.211,0-0.603,0.053-0.882,0.065
		c-0.04,0.002-0.023,0.572-0.103,0.687c-0.128,0.187-0.114,0.614-0.093,0.89c0.036,0.453,0.602,0.767,0.622,0.983
		c0.062,0.676,0.516,0.2,0.648-0.036c0.184-0.325,0.099-0.82,0.298-1.021c0.283-0.283,0.105-0.371,0.556-0.621
		c0.2-0.111,0.2-0.554,0.26-0.752C271.266,160.927,271.704,160.821,271.337,160.363z M229.284,181.654
		c-0.288,0.239-0.491,0.327-0.78,0.547c-0.335,0.26-0.357,0.34-0.778,0.362c-0.394,0.021-0.953,0.297-1.271,0.475
		c-0.171,0.094-0.239,0.311-0.298,0.481c-0.105,0.316,2.091-0.367,2.227-0.481c0.357-0.302,0.758-0.191,1.086-0.596
		C229.574,182.315,229.627,181.895,229.284,181.654z M232.588,182.174c0.101-0.002,0.196,0,0.286,0
		c-0.085,0-0.227,0.005-0.398,0.009C232.513,182.182,232.552,182.175,232.588,182.174z"/>
</g>
</svg>
