<?xml version="1.0" encoding="utf-8"?>
<!-- Generator: Adobe Illustrator 16.0.4, SVG Export Plug-In . SVG Version: 6.00 Build 0)  -->
<!DOCTYPE svg PUBLIC "-//W3C//DTD SVG 1.1//EN" "http://www.w3.org/Graphics/SVG/1.1/DTD/svg11.dtd">
<svg version="1.1" id="Layer_1" xmlns="http://www.w3.org/2000/svg" xmlns:xlink="http://www.w3.org/1999/xlink" x="0px" y="0px"
	 width="277.896px" height="273.065px" viewBox="0 0 277.896 273.065" enable-background="new 0 0 277.896 273.065"
	 xml:space="preserve">
<path id="mississippi" fill="" stroke="" stroke-miterlimit="10" d="M118.996,9.407c32.17-1.424,64.321-2.8,97.311-4.725
	c1.401,38.696,4.21,136.087,2.901,254.149c-2.238-0.522-3.722-0.479-6.246-0.479c-3.05,0-6.437,0.067-9.235,0.769
	c-2.864,0.714-6.229,0.383-9.237,0.383c-3.08,0-4.193-0.701-6.155,0.769c-1.818,1.359-3.081,2.112-5.388,2.686
	c-2.167,0.539-3.845,1.15-5.392,1.533c-1.343,0.336-4.448-1.041-5.77-0.383c-1.738,0.863-2.435,2.172-4.236,3.068
	c-0.76,0.383-4.312,2.163-5.672,2.018l0.289-1.631c0,0-2.311-8.06-2.885-9.402c-0.582-1.343-2.885-3.259-6.156-6.33
	c-3.275-3.071-2.885-5.179-2.311-9.207c0.577-4.032,1.92-5.565,2.693-7.673c0.769-2.112,0.098-9.113,0.131-9.017
	c-40.637,1.98-73.433,3.311-89.114,4.067c-0.31-0.141-0.403-5.068-0.488-5.409c-0.111-0.438,1.674-3.998,1.924-4.988
	c0.349-1.397,3.45-2.294,4.232-3.066c1.674-1.675,1.47-3.6,0.769-4.993c-1.13-2.256-1.747-4.396-0.387-5.756
	c1.083-1.075,1.487-2.953,1.929-3.837c0.985-0.981-1.857-1.984,0.191-2.494c1.449-0.363,2.312-0.962,3.271-1.923
	c0.501-0.497,0.404-2.375,0.578-3.066c0.429-1.713,1.156-2.72,1.156-4.603c0-1.04,0.306-2.569,0.578-3.649
	c0.417-1.669,0.833-1.933,2.307-2.303c1.13-0.28,1.257-1.635,2.12-2.489c1.381-1.377,1.483-3.951,2.694-5.565
	c0.769-1.02,1.874-1.104,2.689-1.921c0.875-0.87,1.636-1.725,2.502-2.876c0.582-0.773,0.99-2.375,1.347-3.263
	c0.59-1.479,2.099-2.091,3.271-3.259c1.305-1.305,1.925-0.965,1.925-2.881c0-0.931-1.113-2.218-1.538-3.067
	c-0.82-1.631-1.972-2.154-3.081-3.259c-1.041-1.041-3.237-2.133-4.809-3.071c-1.491-0.889-3.093-2.154-3.463-3.646
	c-0.136-0.531,0.956-2.872,1.152-3.646c0.212-0.842-0.387-2.026-0.387-3.071c0-0.48,2.103-1.271,2.311-2.107
	c0.208-0.82-0.96-2.693-1.151-3.455c-0.127-0.51-0.45-0.624-0.582-1.151c-0.871-3.48-1.508-4.304,1.925-4.992
	c2.005-0.396-1.381-4.678-1.538-4.984c-0.65-1.296-0.387-3.556-0.387-5.375c0-1.453-0.769-2.63-0.769-4.988
	c0-0.314,3.127-2.864,3.462-4.219c0.047-0.175-3.433-3.038-3.462-3.072c-1.903-1.895-0.969-3.25,1.151-5.37
	c1.793-1.784,0.225-2.26-1.538-4.605c-1.032-1.376-2.481-0.697-3.076-3.067c-0.628-2.511,2.554-4.164,3.463-5.375
	c0.233-0.31-2.558-2.932-2.694-3.067c-1.971-1.967,0.021-3.467,1.542-4.602c2.256-1.691,5.442-0.718,3.076-3.072
	c-1.33-1.33-2.312-1.062-2.312-3.454c0-2.154,2.048-2.927,2.694-4.219c0.76-1.513-0.387-3.845-0.387-5.757
	c0-2.43,1.215-3.101,2.693-3.836c1.343-0.671,3.268-3.441,3.854-4.605c0.871-1.746,1.775-2.196,3.462-3.454
	c1.708-1.279,2.541-2.383,3.463-4.219c0.713-1.419,0.964-3.845,1.538-4.988c0.434-0.862,4.125-0.161,5.005-1.92
	c0.909-1.814,0.769-4.066,0.769-6.135c0-1.619,0.77-3.263,0.77-5.379c0-2.349,0.884-3.675,1.542-4.988
	c1.041-2.077,3.114-2.366,4.231-4.601c0.773-1.542,1.542-3.959,1.542-5.757c0-0.956,2.35-2.771,2.694-3.45
	c0.254-0.515,0.51-1.024,0.769-1.538C119.179,9.866,118.996,9.662,118.996,9.407z"/>
</svg>
