<?xml version="1.0" encoding="utf-8"?>
<!-- Generator: Adobe Illustrator 16.0.4, SVG Export Plug-In . SVG Version: 6.00 Build 0)  -->
<!DOCTYPE svg PUBLIC "-//W3C//DTD SVG 1.1//EN" "http://www.w3.org/Graphics/SVG/1.1/DTD/svg11.dtd">
<svg version="1.1" id="svg2" xmlns:svg="http://www.w3.org/2000/svg"
	 xmlns="http://www.w3.org/2000/svg" xmlns:xlink="http://www.w3.org/1999/xlink" x="0px" y="0px" width="1040.948px"
	 height="950.952px" viewBox="412.111 831.094 1040.948 950.952" enable-background="new 412.111 831.094 1040.948 950.952"
	 xml:space="preserve">
<rect x="-105" y="-41" fill="none" stroke="#593333" stroke-width="3" stroke-miterlimit="10" width="1900" height="1924"/>
<path fill="none" stroke-width="3" stroke-miterlimit="10" d="M1306.5,1129.916
	c-14.185,9.729-33.194,18.306-40.118,34.834c-3.362,8.025-8.441,16.203-15.623,21.3c-8.415,5.972-19.151,6.149-27.436,11.649
	c-16.985,11.277-33.961,22.027-48.477,36.395c-5.402,5.346-14.597,12.015-14.597,19.752c0,8.974-9.179,19.189-13.915,26.737
	c-21.905,34.912-60.8,44.909-98.727,53.473c-3.818,0.862-8.146,6.663-11.021,9.214c-3.489,3.097-7.229,3.427-11.801,4.587
	c-11.418,2.897-13.577,11.2-23.406,16.086c-18.517,9.203-35.135,21.724-53.774,31.237c-5.236,2.673-9.271,9.217-13.182,13.5
	c-5.064,5.547-11.627,9.089-17.878,13.235c-12.421,8.237-19.229,22.019-26.204,34.691c-6.566,11.93-18.812,23.751-27.066,34.648
	c-8.522,11.252-12.206,21.253-17.23,34.256c-2.43,6.289-4.181,16.346-8.85,21.31c-5.698,6.058-11.796,6.378-17.474,13.623
	c-3.271,4.174-3.612,13.548-5.709,18.887c-3.041,7.739-5.797,15.574-8.602,23.403c-1.519,4.241-9.011,8.734-12.576,11.638
	c-9.138,7.443-11.339,5.75-22.81,6.883c-15.575,1.539-29.728,3.424-45.526,3.424"/>
</svg>
