<?xml version="1.0" encoding="utf-8"?>
<!-- Generator: Adobe Illustrator 16.0.4, SVG Export Plug-In . SVG Version: 6.00 Build 0)  -->
<!DOCTYPE svg PUBLIC "-//W3C//DTD SVG 1.1//EN" "http://www.w3.org/Graphics/SVG/1.1/DTD/svg11.dtd">
<svg version="1.1" id="Layer_1" xmlns="http://www.w3.org/2000/svg" xmlns:xlink="http://www.w3.org/1999/xlink" x="0px" y="0px"
	 width="277.896px" height="273.065px" viewBox="0 0 277.896 273.065" enable-background="new 0 0 277.896 273.065"
	 xml:space="preserve">
<path id="tennessee" fill="" stroke="" stroke-miterlimit="10" d="M21.616,123.694
	c18.598-0.763,35.493-1.675,49.048-2.771c0.329-0.082,0.193-1.232,0.193-1.475c0-0.503-0.215-0.804-0.215-1.215
	c0-0.6-0.644-1.497-0.859-1.927c-0.18-0.354-0.366-0.585-0.502-0.854c-0.168-0.332-0.297-0.735-0.43-0.998
	c-0.177-0.357-0.11-0.729-0.215-1.144c-0.079-0.313,0.003-0.791,0.073-1.068l8.155-0.929l-0.082,2.189
	c69.111-5.932,134.7-14.416,198.483-24.186c-0.035,0.351-0.102,0.664-0.219,0.951c-0.284,0.711-0.416,1.526-0.571,2.142
	c-0.139,0.559-0.246,1.403-0.433,2.139c-0.177,0.718,0,1.447,0,2.14c0,0.708,0.287,1.276,0.287,1.997
	c0,0.944,0.313,1.807-0.143,2.71c-0.312,0.623-0.426,1.422-0.855,1.855c-0.941,0.941-0.294,0.999-1.145,0.572
	c-0.644-0.319-1.172-0.404-1.719,0.142c-0.578,0.575-1.185,1.042-1.861,1.715c-0.609,0.61-0.909,1.238-1.289,1.995
	c-0.249,0.501-0.515,1.37-0.856,1.715c-0.416,0.416-0.673,0.896-1.001,1.711c-0.36,0.897-0.338,1.634-0.575,2.568
	c-0.104,0.427-0.151,1.855-0.855,1.855c-1.009,0-0.763-0.578-1.433-0.711c-0.236-0.048-0.474-0.146-0.713-0.146
	c-0.241,0-0.478,0-0.718,0c-0.601,0-1.962-0.209-2.433,0.146c-0.865,0.647-1.839,0.837-2.576,1.57
	c-0.511,0.509-1.273,0.828-1.575,1.426c-0.349,0.697-0.646,1.149-0.999,1.854c-0.336,0.67-0.543,0.97-1.147,1.567
	c-0.243,0.246-1.999,1.577-2.43,1.144c-0.43-0.426,0.013-1.567-0.575-1.712c-0.888-0.222-2.158-0.288-3.434-0.288
	c-1.3,0-1.761-0.101-2.576,0.715c-0.483,0.482-1.011,1.021-1.285,1.569c-0.49,0.971-0.575,1.17-1.577,1.571
	c-0.827,0.332-1.709,0.562-2.287,1.141c-0.626,0.622-0.613,1.292-0.859,2.28c-0.14,0.548-0.648,2.361-1.002,2.711
	c-0.525,0.525-0.834,0.734-1.574,1.287c-0.683,0.504-1.33,0.723-2.003,0.856c-0.42,0.082-2.075,0.068-2.433,0.426
	c-0.335,0.332-1.075,0.863-1.289,1.713c-0.202,0.803-0.869,1.678-1.431,2.428c-0.607,0.805-1.166,2.363-2.146,2.852
	c-0.795,0.398-1.619,0.668-2.577,0.857c-1.185,0.236-2.174,0.656-3.147,1.141c-0.666,0.332-1.19,0.596-2.003,0.998
	c-0.728,0.367-2.683,1.715-3.577,1.715c-0.751,0-1.797-0.016-2.574,0.143c-0.702,0.139-1.868,0.998-2.579,0.998
	c-0.095,0-0.198-0.043-0.284,0c-0.891,0.443-1.912,1.16-2.433,1.855c-0.36,0.475-1.188,1.17-1.286,1.566
	c-0.222,0.869-0.869,1.447-1.289,2.281c-0.271,0.541-0.742,1.471-0.575,2.143c0.136,0.541,0.045,1.543-0.142,2.281
	c-0.168,0.674-0.44,1.021-0.715,1.57c-0.395,0.785-0.442,0.469-1.431,0.715c-0.742,0.184-2.174,0.711-2.863,0.711
	c-1.267,0-0.714,0.641-1.431,1.002c-0.465,0.227-1.002,0.525-1.002,1.283c0,0.902,0,1.807,0,2.711c0,0.947-0.104,2.15,0.143,3.137
	c0.217,0.875,0.521,2.48,0.502,3.205c-70.745,8.584-132.57,11.279-194.262,13.965c-0.133-0.758,1.656-2.973,2.158-3.473
	c0.866-0.863,1.431-3.135,1.431-4.279c0-1.143,1.094-3.035,1.432-3.711c0.613-1.221,0.284-3.738,0.284-5.139
	c0-0.482,1.4-1.574,1.719-1.992c0-1.65,2.291-1.967,2.291-4.283c0-1.121,0.367-3.014,0.859-3.996
	c0.897-1.791,0.562-2.557,2.003-3.994c1.444-1.443,3.236-1.074,4.579-2.855c0.461-0.617,0-3.463,0-4.279
	c0-1.787,1.062-3.104,1.428-4.568c0.155-0.287,0.306-0.576,0.461-0.869c0.474-0.9-0.073-1.896-0.206-2.42
	c-0.351-1.406,0.348-1.756,1.014-2.42c0.679-0.68,0.584-1.529,0.809-2.424c0.224-0.895-0.047-2.199-0.202-2.822
	c-0.222-0.882,0-2.117,0-3.027c0-0.964-0.607-1.213-0.607-2.42C21.467,124.632,21.543,124.084,21.616,123.694z"/>
</svg>
