<?xml version="1.0" encoding="utf-8"?>
<!-- Generator: Adobe Illustrator 16.0.4, SVG Export Plug-In . SVG Version: 6.00 Build 0)  -->
<!DOCTYPE svg PUBLIC "-//W3C//DTD SVG 1.1//EN" "http://www.w3.org/Graphics/SVG/1.1/DTD/svg11.dtd">
<svg version="1.1" id="Layer_1" xmlns="http://www.w3.org/2000/svg" xmlns:xlink="http://www.w3.org/1999/xlink" x="0px" y="0px"
	 width="277.896px" height="273.065px" viewBox="0 0 277.896 273.065" enable-background="new 0 0 277.896 273.065"
	 xml:space="preserve">
<path id="texas" fill="" stroke="" stroke-miterlimit="10" d="M144.234,52.407c0.469-0.072,0.939-0.127,1.406-0.127
	c0.562,0,0.604,0.32,0.797,0.707c0.311,0.617,0.529,1.189,1.148,1.498c0.119,0.059,0.236,0.117,0.355,0.178
	c0.439,0.219,0.607,0.695,1.061,1.145c0.439,0.439,0.74,0.924,0.885,1.5c0.1,0.395,0.639,0.582,1.062,0.793
	c0.426,0.213,1.438-0.07,1.855-0.176c0.885-0.221,1.58-0.441,2.479-0.441c0.488,0,0.695-0.67,1.682-0.527
	c0.781,0.109,0.709,0.396,1.326,0.705c0.648,0.322,1.416,0.564,1.416,1.412c0,0.535,0.088,0.992,0.088,1.498
	c0,0.832,2.066,2.224,2.477,2.732c0.578,0.723,3.016-0.064,3.805-0.264c0.896-0.225,0.902,0.16,1.061,0.793
	c0.15,0.602,0.254,1.057,0.975,1.234c1.016,0.254,2.369-0.037,3.271-0.264c0.471-0.117,1.168,0.5,1.682,0.705
	c0.127,0.051,0.334,1.303,0.529,1.5c0.271,0.27,2.291-0.879,2.654-1.061c0.48-0.238,0.957-0.398,1.504-0.615
	c0.596-0.238,1.627-0.143,1.945,0.176c0.557,0.555,1.049,0.088,1.504,0.088c0.598,0,2.535,1.117,2.92,1.5c0.365,0.363,0,0.969,0,1.5
	c0,0.115,0,0.234,0,0.354c0,0.574,0.553,0.898,0.883,1.145c0.828,0.621,0.709-0.045,0.709,1.324c0,0.707,0.061,1.045,0.619,1.322
	c0.5,0.25,1.188,0.01,1.68-0.088c1.1-0.219,2.039-0.357,2.832-1.146c0.391-0.391,0.324-1.121,0.617-1.412
	c0.482-0.479,1.34-0.256,1.771,0.088c0.742,0.596,1.096,0.211,0.795,1.412c-0.01,0.039-0.059,0.059-0.088,0.088
	c-0.727,0.725,0.863,1.049,1.061,1.146c0.855,0.428,1.039,0.32,1.857-0.088c1.145-0.57,0.938-0.299,1.592,0.354
	c0.248,0.246,1.443-0.559,1.594-0.705c0.607-0.607,0.883,0.193,0.883,0.705c0,0.553-0.266,1.211-0.266,1.939
	c0,0.77,0.305,1.889,1.062,1.324c1.002-0.75,1.023-1.689,1.592-2.824c0.219-0.436,0.357-0.883,0.709-1.059
	c0.639-0.316,1.27-0.146,1.855,0c0.578,0.146,1.26-0.615,1.592-1.059c0.391-0.516,0.361-0.617,1.062-0.617
	c0.611-0.812,1.945,1.672,1.945,2.117c0,0.793,1.779,1.105,2.301,1.234c0.9,0.227,1.139,0.432,1.768,1.059
	c0.91,0.906,1.797,0.492,2.654,0.705c1.055,0.264,0.037,1.764,1.77,1.764c0.637,0,1.641-1.459,1.945-1.764
	c0.699-0.695,1.031-1.051,2.479-1.41c1.039-0.26,1.188-1.197,1.945-1.764c0.742-0.557,2.598-0.354,3.537-0.354
	c0.602,0,0.916,1.826,1.062,2.115c0.105,0.213,1.236-1.938,1.416-2.293c0.365-0.729,2.758-0.352,3.537-0.352
	c0.555,0,1.229,1.752,1.594,2.115c1.061,1.061,2.244,0.701,3.184,0c0.912-0.682,0.236-1.439,1.238-1.939
	c1.176-0.588,2.543-0.146,3.184,0.705c0.389,0.516,2.107,1.043,2.479,1.412c0.838,0.836,1.145,1.363,1.945,1.764
	c1.17,0.582,1.828,1.059,3.359,1.059c1.729,0,1.762-0.094,3.008,0.529c1.064,0.529,0.58,1.291,1.771,1.586
	c1.27,0.318,0.734,1.25,1.768,1.764c1.002,0.5,1.643,0.254,2.654,0c0.938-0.23,1.49-0.465,2.654-0.176
	c0.602,0.15,1.234,0.268,1.811,0.254c-0.025-0.043-0.246,21.002-0.324,37.562c0.053,0.131,0.109,0.26,0.162,0.387
	c0.307,0.719,0.469,1.379,1.074,1.982c0.432,0.432,0.816,1.203,1.377,1.623c0.816,0.609,0.967,0.91,1.5,1.619
	c0.426,0.564,0.845,1.625,0.628,2.496c-0.183,0.721,0.092,1.084,0.25,1.87c0.203,1.016,0.746,1.861,1.125,2.619
	c0.223,0.443,0.701,0.838,1.252,1.248c0.449,0.338,1.25,0.742,1.25,1.248c0,0.748,0,1.496,0,2.244c0,0.83,0.182,1.6,0.375,2.371
	c0.217,0.859,0.598,1.219,1.252,1.869c0.781,0.781,1.588,0.895,1.25,2.244c-0.168,0.674-0.398,2.84,0,3.369
	c0.592,0.785,0.799,1.26,0.625,2.119c-0.145,0.725-0.426,1.896-1.125,2.246c-0.492,0.244-0.844,0.562-1.125,1.121
	c-0.561,1.115-1.877,1.277-1.877,2.621c0,0.455-0.156,1.449-0.5,1.621c-0.594,0.295-1.066,0.76-1.252,1.496
	c-0.178,0.715-0.023,1.277,0.125,1.869c0.127,0.504,0.5,1.521,0.5,1.996c0,0.959,0.459,2.16,0.877,2.994
	c0.082,0.166,0.166,0.334,0.25,0.498c0.26,0.521,0.701,1.521,0.25,2.121c-0.199,0.266-1.25,0.957-1.25,1.123
	c0,0.674-0.016,1.391-0.377,1.871c-0.404,0.537-0.828,1.152-1.125,1.746c-0.305,0.604-0.535,1.137-0.75,1.994
	c-0.202,0.805-0.687,0.615-1.003,1.248c-0.287,0.574-0.312,1.416-0.021,1.891c-0.807-0.207-1.258,1.064-2.02,1.254
	c-0.912,0.229-1.971,0.139-2.832,0.354c-0.438,0.107-1.523,0.672-1.945,0.883c-0.734,0.365-1.584,0.438-2.123,0.705
	c-0.688,0.342-1.807,0.725-2.477,1.059c-0.666,0.332-1.049,1.316-1.945,1.764c-1.152,0.574-1.703,0.732-3.008,1.059
	c-0.236,0.059-0.471,0.117-0.709,0.178c-0.854,0.213-2.123,0.531-1.238-0.354c0.525-0.521,1.822-0.758,2.301-1.234
	c0.686-0.684-1.389-2.268-1.592-2.471c-0.621-0.617-1.48-0.264-1.77-1.41c-0.199-0.791,0.045-2.119,0.178-2.646
	c0.17-0.684-2.25,0.781-2.477,1.234c-0.439,0.877-0.531,1.422-0.531,2.469c0,1.16-0.178,2.324-0.178,3.529
	c0,1.404,0.449,3.199,0.709,4.23c0.273,1.098-0.34,2.412-0.531,3.178c-0.211,0.838-0.828,1.535-1.062,2.469
	c-0.229,0.92-0.973,1.939-1.238,2.998c-0.307,1.229-0.576,2.078-1.238,3.176c-0.691,1.15-2.418,1-3.184,1.766
	c-0.793,0.787-2.971,0.873-3.893,1.059c-1.449,0.287-1.609,0.977-2.832,1.586c-1.037,0.518-1.818,1.67-2.65,2.293
	c-1.219,0.91-2.42,1.824-3.717,2.469c-1.402,0.701-2.855,1.375-4.424,1.768c-1.129,0.279-1.336,0.449-0.176-0.707
	c0.994-0.99,2.227-1.338,3.008-2.117c0.701-0.699,1.295-0.881-0.354-0.881c-0.99,0-0.854-1.111-1.062-1.941
	c-0.307-1.225-0.648-0.881-1.592-0.176c-0.74,0.555-1.344,0.564-2.123,0.176c-0.871-0.434-0.684-0.98-1.945-0.352
	c-0.971,0.482-0.197,1.416-1.594,1.764c-0.863,0.215-1.834-0.42-2.299-0.883c-0.965-0.963-1.775,0.203-1.945,0.883
	c-0.186,0.738,1.164,1.791,1.414,2.293c0.32,0.639,1.277,0.781,1.592,1.412c0.486,0.969-0.113,1.701-0.529,2.115
	c-0.408,0.408-2.383-0.395-2.652-0.529c-0.836-0.416-2.053,0.283-2.477,0.707c-0.344,0.34-0.424,2.076-0.531,2.291
	c-0.496,0.99-0.016,0.85-0.885,1.5c-0.48,0.359-0.562,0.736-0.887,1.059c-0.113,0.115-1.609-0.176-1.855-0.176
	c-0.473,0-0.605,0.432-0.975,0.705c-0.281,0.211-1.074,0.373-1.414,0.441c-0.119,0.021-0.234,0.059-0.354,0.088
	c-0.521,0.129-0.82,0.383-1.062,0.705c-0.264,0.35-0.734,0.406-0.975,0.883c-0.205,0.41,1.18,0.719,1.504,0.881
	c0.51,0.254,0.98,0.268,1.504,0.529c0.469,0.232,0.459,0.742,0.09,1.234c-0.271,0.361-0.729,0.482-0.975,0.971
	c-0.27,0.541,0.129,1.076,0,1.588c-0.148,0.598-1.215,0.793-1.68,0.793c-0.812,0-1.912-0.045-2.564-0.176
	c-0.439-0.088-1.002-0.125-1.504,0c-0.723,0.18-0.709,0.238-0.709,0.971c0,0.438,0.465,0.75,0.621,1.059
	c0.234,0.467,0.088,1.252,0.088,1.764c0,0.59-0.443,0.869-0.443,1.588c0,0.539-0.016,1.064,0.09,1.588
	c0.094,0.465,0.158,1.229,0.088,1.588c-0.012,0.057,0,0.117,0,0.176c0,0.854-0.053,1.543,0.088,2.381
	c0.127,0.748,0.178,1.639,0.178,2.381c0,0.779-0.676,1.072-1.326,1.236c-0.119,0.029-0.236,0.059-0.354,0.088
	c-0.9,0.225-1.246-0.016-1.592-0.707c-0.244-0.484-0.475-0.545-0.975-0.793c-0.471-0.234-1.33,0.09-1.68,0.176
	c-0.688,0.174,0.078,0.873,0.176,0.971c0.285,0.287,0.479,0.547,0.797,0.707c0.49,0.244,0.791,0.26,1.15,0.615
	c0.088,0.09,0.176,0.178,0.266,0.268c0.307,0.305,0.6,0.422,0.885,0.705c0.381,0.379,0.084,1.346,0,1.764
	c-0.008,0.041,0.059-0.059,0.09-0.09c-0.283,1.402,0.145,1.828-0.443,3c-0.404,0.807-0.58,1.334-0.885,1.939
	c-0.34,0.68-0.531,1.18-0.531,2.293c0,1.027,0.293,1.521,0.531,2.471c0.211,0.84,0.367,1.994,0.529,2.645
	c0.27,1.072,0.268,2.123,0.531,3.176c0.275,1.096,0.273,1.955,0.707,2.82c0.4,0.801,0.336,1.869,0.531,2.646
	c0.152,0.609,0.562,1.543,0.707,2.117c0.223,0.885,0.609,1.547,0.885,2.646c0.266,1.053,0.633,1.463,0.885,2.469
	c0.02,0.076,0.141,0.201,0.23,0.486c-0.83,0.012-2.326,0.312-3.609,0.633c-1.475,0.369-2.484-0.482-3.537-1.008
	c-1.373-0.686-2.783-1.01-4.045-1.512c-0.418-0.168-1.807-1.551-2.273-2.018c-0.824-0.822-3.012,0.117-3.789,0.504
	c-1.152,0.574-2.256-0.688-3.539-1.008c-1.295-0.322-2.68-0.479-3.791-0.756c-1.477-0.367-2.338-1.654-3.791-2.016
	c-1.09-0.271-1.229-1.439-2.527-1.766c-1.506-0.375-3.004,0.07-4.297-0.25c-1.773-0.443-2.311-0.795-3.283-1.766
	c-0.943-0.941-1.457-1.705-2.275-2.521c-1.152-1.148-2.494-1.949-3.031-3.021c-0.854-1.703-2.053-2.98-3.033-4.283
	c-0.871-1.158-0.932-2.162-1.77-3.277c-0.809-1.074-1.174-1.836-1.77-3.021c-0.588-1.17-1.264-2.414-1.264-3.527
	c0-0.506-0.779-2.104-1.012-3.025c-0.283-1.131-0.504-1.822-0.504-3.273c0-1.135-0.254-2.725-0.254-4.033
	c0-1.436,0.254-2.703,0.254-4.029c0-0.865-1.307-1.588-2.023-1.766c-0.963-0.24-1.814-2.039-2.779-2.521
	c-1.015-0.504-1.718-1.781-2.273-2.52c-0.867-1.152-1.408-1.295-2.273-3.023c-0.703-1.398-0.854-2.963-1.518-4.283
	c-0.363-0.723-2.016-1.887-2.779-2.268c-0.926-0.463-1.719-2.471-2.527-3.275c-1.119-1.117-2.061-1.73-3.033-3.023
	c-0.771-1.027-1.1-1.361-1.516-3.025c-0.273-1.088-0.309-2.734-0.506-3.527c-0.084-0.336-0.168-0.672-0.252-1.006
	c-0.305-1.217-0.484-1.936-0.758-3.025c-0.248-0.986-0.797-2.168-1.01-3.023c-0.301-1.191-1.006-2.006-1.77-3.023
	c-0.977-1.297-1.451-2.432-2.275-3.525c-0.773-1.029-1.201-1.641-1.77-2.773c-0.537-1.07-0.729-1.896-1.01-3.021
	c-0.154-0.613-1.463-1.963-1.77-2.27c-0.771-0.77-1.117-1.365-1.77-2.016c-0.578-0.576-1.377-1.627-2.021-2.268
	c-0.857-0.857-1.354-1.221-2.527-1.514c-1.322-0.328-2.924-0.604-4.547-1.008c-1.104-0.273-2.648,0-3.791,0
	c-2.084,0-4.111,0.486-6.066,0c-1.357-0.338-2.738-0.357-4.043-1.008c-1.469-0.732-3.672-0.504-5.309-0.504
	c-1.363,0-2.109,0.426-2.527,1.26c-0.268,0.533-2.141,1.32-2.527,1.512c-1.09,0.543-1.398,2.496-2.021,3.527
	c-0.668,1.113-0.977,2.201-1.516,3.277c-0.373,0.74-1.588,2.193-2.021,2.77c-0.664,0.883-1.266,1.613-1.266,3.023
	c0,0.539-1.938,2.689-2.273,3.023c-0.9,0.896-1.02,1.262-2.779,1.262c-1.301,0-3.014-0.621-3.791-1.01
	c-1.123-0.559-2.125-0.971-3.287-1.26c-0.998-0.248-1.834-1.041-2.777-1.512c-0.951-0.475-2.002-0.932-2.781-1.514
	c-0.877-0.654-1.752-1.244-2.527-2.016c-0.717-0.715-1.246-1.447-1.516-2.52c-0.287-1.146-1.279-1.779-2.275-2.771
	c-0.922-0.918-1.686-1.18-2.525-2.016c-0.773-0.771-1.371-1.115-2.023-1.766c-0.768-0.766-1.035-1.535-1.768-2.268
	c-0.264-0.262-0.348-0.346-0.506-0.504c-0.211-0.168-0.422-0.336-0.633-0.504c-0.715-0.572-1.109-1.846-1.516-2.521
	c-0.299-0.496-0.264-1.031-0.504-1.512c-0.316-0.629-0.588-1.457-0.758-2.143c-0.17-0.674-0.254-1.398-0.254-2.268
	c0-0.168,0-0.336,0-0.504c0-0.986,0.053-1.629-0.125-2.521c-0.135-0.666-0.254-1.441-0.254-2.143c0-0.168,0-0.334,0-0.504
	c0-0.744-0.484-1.965-0.758-2.646c-0.27-0.672-0.09-1.439-0.379-2.016c-0.355-0.709-0.326-1.529-0.631-2.143
	c-0.336-0.67-0.381-1.135-0.758-1.512c-0.475-0.473-0.746-1.117-1.137-1.639c-0.469-0.619-0.666-1.062-1.014-1.637
	c-0.395-0.658-1.008-1.133-1.516-1.387c-0.826-0.412-1.598-1.199-2.021-1.766c-0.389-0.516-0.666-0.693-1.012-1.385
	c-0.307-0.613-0.869-1.105-1.137-1.639c-0.438-0.873-1.215-1.715-1.77-2.268c-0.418-0.418-1.016-0.762-1.391-1.135
	c-0.525-0.523-1.117-0.988-1.516-1.385c-0.189-0.191-0.336-0.42-0.504-0.631c-0.584-0.729-1.605-1.098-2.15-1.639
	c-0.373-0.372-0.666-0.665-1.01-1.009c-0.385-0.385-0.59-0.967-0.885-1.26c-0.527-0.525-0.688-1.113-1.391-1.639
	c-0.635-0.477-0.969-0.986-1.77-1.387c-0.727-0.363-1.338-1.662-1.643-2.268c-0.256-0.51-0.494-0.834-0.631-1.387
	c-0.18-0.721-0.344-1.119-0.506-1.764c-0.162-0.65-0.471-0.963-0.883-1.514c-0.35-0.461-0.654-1.029-1.014-1.385
	c-0.439-0.441-0.869-0.617-1.262-1.008c-0.42-0.422-0.553-0.781-1.012-1.01c-0.506-0.252-0.684-1.141-1.01-1.385
	c-0.504-0.377-0.891-0.76-1.391-1.135c-0.578-0.434-1.051-0.668-1.391-1.008c-0.229-0.229-0.557-0.736-0.852-1.037
	c-0.037-0.094-0.1-0.164-0.158-0.223c-0.375-0.373-0.666-0.664-1.012-1.01c-0.443-0.441-0.506-1.395-0.506-2.141
	c0-0.311-0.006-0.656-0.004-0.885l76.09,8.154c0,0,8.156-107.355,8.412-111.853c22.246,2.627,41.684,3.512,60.976,4.352
	c-0.33,16.697-1.643,47.34-1.643,47.465"/>
</svg>
