<?xml version="1.0" encoding="utf-8"?>
<!-- Generator: Adobe Illustrator 16.0.4, SVG Export Plug-In . SVG Version: 6.00 Build 0)  -->
<!DOCTYPE svg PUBLIC "-//W3C//DTD SVG 1.1//EN" "http://www.w3.org/Graphics/SVG/1.1/DTD/svg11.dtd">
<svg version="1.1" id="Layer_1" xmlns="http://www.w3.org/2000/svg" xmlns:xlink="http://www.w3.org/1999/xlink" x="0px" y="0px"
	 width="277.896px" height="273.065px" viewBox="0 0 277.896 273.065" enable-background="new 0 0 277.896 273.065"
	 xml:space="preserve">
<path id="virginia" fill="" stroke="" stroke-miterlimit="10" d="M181.081,64.102l-0.996,11.455L160.77,62.939
	c0,0.225,0,0.441,0,0.666c0,1.441-0.279,3.125-0.666,4.651c-0.309,1.239-0.419,2.981,0,4.646c0.306,1.213,0.625,4.026-0.334,4.981
	c-0.592,0.592-1.717,3.346-2.327,3.651c-0.938,0.467-1.975,1.301-3,2.323c-1.118,1.114-1.092,1.849-1.996,3.654
	c-0.879,1.746-1.573,3.525-2.665,4.981c-0.776,1.026-1.968,2.978-3.331,3.32c-1.938,0.481-2.077,1.14-3.996,0.661
	c-1.229-0.305-3.726,0.629-3.998,1.997c-0.357,1.786-0.941,2.544-1.666,3.981c-0.654,1.305-1.397,2.981-0.997,4.981
	c0.276,1.382,0.728,3.731,0.331,5.312c-0.327,1.312-1.386,3.32-2.662,3.32c-1.628,0-3.603-0.335-4.996-0.335
	c-1.581,0-2.996-0.238-2.996-1.992c0-1.356-2.831-3.658-3.331-1.662c-0.353,1.412-0.544,2.166-1,3.985c-0.489,1.948-2,4.275-2,6.309
	c0,3.569-2.177,3.073-2.662,5.481c0,0.533-0.272,0.515-0.334,0.827c-0.154,0.779-0.79,1.823-1.165,2.323
	c-0.644,0.854-1.541,1.996-1.831,3.154c-0.261,1.048-0.743,2.279-0.5,3.485c0.254,1.261,0.5,1.662,0.5,2.992
	c0,1.309-0.166,2.481-0.166,3.651c0,0.981-0.368,2.224-1.169,2.819c-0.897,0.673-3.041,1.342-3.327,2.492
	c-0.25,0.989-1.198,1.897-1.665,2.985c-0.688,1.6-0.666,2.261-0.666,3.985c0,0.665,0.301,2.386,0,2.988
	c-0.39,0.78-1.166,2.32-1.166,3.32c0,1.25-0.033,2.463-0.334,3.654c-0.287,1.14-0.846,1.529-2,1.988
	c-1.632,0.651-1.981,1.239-3.493,1.997c-1.242,0.617-2.511,1-3.831,1.657c-0.75,0.372-1.912,0.816-2.166,1.827
	c-0.353,1.416-1.61,1.497-3.327,1.497c-1.144,0-3.644-0.214-4.166,0.827c-0.5,1-0.831,1.088-0.831,2.157
	c0,0.685,0.853,2.562,0,2.989c-0.768,0.383-1.908,0.996-2.996,0.996c-1.198,0-2.54-0.224-3.665,0
	c-0.993,0.195-2.132,0.566-2.997,0.993c-0.481,0.242-2.393,1.323-2.827,0.996c-0.478-0.354-1.574-0.787-2-1.493
	c-0.677-1.132-3.305-1.684-4.331-0.665c-0.478,0.475-0.735,1.463-1.162,2.323c-0.128,0.262-0.577,1.614-0.996,1.827
	c-0.541,0.269-2.048,0.379-2.5,0.827c-0.632,0.629-1.537,1.037-2.166,1.662c-0.878,0.879-0.658,0.331-1.831,0.331
	c-0.709,0-2.184-0.191-2.662-0.831c-0.379-0.5-1.467-1.658-2.166-1.658c-0.89,0-1.834,0.5-2.5-0.165
	c-0.412-0.412-0.511-1.004-1.162-1.327c-0.581-0.291-1.654-0.654-2-0.997c-0.272-0.271-1.231-1.257-1.331-1.661
	c-0.206-0.812-0.864-1.706-1.334-2.323c-0.188-0.25-0.379-0.5-0.57-0.75c-0.438-1.735-0.467-2.637-0.941-3.025
	c-0.541,0.184-0.9,0.771-1.415,1.029c-0.838,0.419-1.114-0.008-1.53,0.823c-0.235,0.471-0.195,1.323-0.353,1.644
	c-0.459,0.911-1.077-0.06-1.416,1.29c-0.136,0.544-1.231,0.548-1.529,0.941c-0.39,0.521-0.709,0.588-1.176,1.059
	c-0.504,0.5-0.934,0.691-1.177,1.173c-0.294,0.584-0.721,1.309-1.059,1.878c-0.099,0.166-1.904,0.574-2.239,0.82
	c-0.401,0.302-0.57,1.194-0.824,1.529c-0.349,0.467-0.938,0.585-1.294,0.938c-0.765,0.765-0.882,1.059-2,1.059
	c-0.743,0-0.978,0.537-1.18,0.938c-0.346,0.688-0.588,0.993-0.588,1.765c0,0.412-2.191,0.75-2.47,0.82
	c-0.886,0.22-1.019,0.734-1.765,1.294c-0.621,0.459-0.621,0.646-0.941,1.29c-0.43,0.86,0.011,1.471-0.471,2.114
	c-0.478,0.636-0.449,1.636-0.588,2.463c-0.118,0.717-0.353,0.971-0.353,1.879c0,0.765-0.404,0.599-1.294,0.823
	c-0.404,0.103-0.176,1.283-0.235,1.525c-0.143,0.57-1.15,0.533-1.415,1.059c-0.316,0.633,0.007,1.17-0.471,1.644
	c-0.423,0.423-0.588,1.283-0.588,1.996c0,1.25-1.61,0.985-2.588,0.824c-1.173-0.195-1.449-0.408-1.651,0.584
	c-0.015,0.073-1.346,0.695-1.526,1.059c-0.062,0.118-1.165,0.452-1.297,0.585c-0.394,0.79-2.747,1.019-3.412,2.349
	c-0.213,0.427,0.47,1.291,0.47,1.879c0,0.577-0.507,0.956-0.941,1.173c-0.511,0.254-0.118,1.088-0.118,1.525
	c0,0.206-0.423,1.125-0.224,1.262c100.448-14.18,149.422-22.896,271.863-45.149c0.257-0.654,0.198-1.25,0.198-2.007
	c0-1.812-0.596-4.254-0.941-5.637c-0.305-1.209-0.725-1.68-1.18-2.58c-0.435-0.871-1.901-0.941-3.06-0.941
	c-0.856,0-2.676-0.742-3.062-0.938c-0.71-0.353-2.339-0.287-3.06-0.471c-0.393-0.077-0.786-0.154-1.18-0.235
	c-1.688-0.338-2.448-0.632-4-1.408c-2.305-1.146-2.305-2.14-2.827-4.224c-0.423-1.684-0.283-2.419-1.882-2.816
	c-1.856-0.463-3.463-1.503-4.239-3.051c-0.779-1.556-0.202-1.688,0.471-2.585c0.812-1.077,2.728-1.408,4.004-1.408
	c2.113,0,1.713-1.511,1.176-2.58c-0.705-1.408-1.492-1.806-2.117-3.056c-0.448-0.893-1.64-1.4-2.592-2.109
	c-1.548-1.158-3.14-1.956-4.239-3.056c-0.779-0.775,1.475-4.532,1.647-5.396c0.342-1.688-0.471-3.46-0.471-5.165
	c0-1.633-0.235-3.188-0.235-4.695c0-1.213-1.853-3.018-2.588-3.992c-0.831-1.106-1.275-1.644-3.062-1.644
	c-2.444,0-4.488-2.349-6.827-2.815c-3.048-0.607-6.507-1.133-8.948-2.35c-1.209-0.603-2.845-1.059-4.238-1.408
	c-1.364-0.338-2.25-1.382-3.294-1.644c-1.298-0.323-2.941-1.753-3.533-2.345c-0.985-0.982-2.559-0.816-4.003-1.177
	c-0.387-0.096-0.787-0.154-1.177-0.235c-1.323-0.261-1.75-0.569-2.592-1.408c-0.294-0.426-0.835-1.029-0.835-1.566
	c0-0.742-0.132-1.687,0.335-2.154c0.621-0.625,0.665-0.688,0.665-1.83c0-1.202,0.239-1.199,1.166-1.658
	c0.64-0.32,1.684-0.68,2.33-1.331c0.574-0.569,0.714-1.136,0.5-1.989c-0.176-0.709-0.83-1.581-0.83-2.327
	c0-1.048,0.213-1.75,0.665-2.654c0.467-0.93,0.173-1.151-0.331-2.158c-0.283-0.566-0.515-1.342-1-1.989
	c-0.356-0.474-1.908-1.309-2-1.662c-0.15-0.61-0.544-1.916-0.831-2.493c-0.286-0.57-0.636-1.261-1.165-1.662
	c-0.717-0.533-1.481-0.709-2.331-0.496c-1.18,0.294-1.963-0.39-3.33-0.666c-1.354-0.272-2.243-0.702-3.166-1.162
	c-0.786-0.394-1.688-0.331-2.661-0.331c-0.864,0-1.919,0.485-2.166-0.5c-0.08-0.32-0.44-1.775-0.165-2.323
	c0.206-0.416,0.633-1.537,0.165-2.158c-0.327-0.43-0.93-2.209-1.496-2.323c-0.89-0.177-1.717-0.717-2.165-1.158
	c-0.36-0.364-0.769-0.886-1.331-1.166c-0.842-0.419-1.246-0.496-2.5-0.496c-1.04,0-1.757,0.375-2.661-0.169
	C181.636,64.436,181.36,64.267,181.081,64.102z"/>
</svg>
